<?xml version="1.0" encoding="UTF-8" standalone="no"?>
<svg
   xmlns:dc="http://purl.org/dc/elements/1.1/"
   xmlns:cc="http://creativecommons.org/ns#"
   xmlns:rdf="http://www.w3.org/1999/02/22-rdf-syntax-ns#"
   xmlns:svg="http://www.w3.org/2000/svg"
   xmlns="http://www.w3.org/2000/svg"
   version="1.1"
   id="svg2"
   viewBox="0 0 1050 749.99998"
   height="800"
   width="1120">
  <defs
     id="defs4" />
  <metadata
     id="metadata7">
    <rdf:RDF>
      <cc:Work
         rdf:about="">
        <dc:format>image/svg+xml</dc:format>
        <dc:type
           rdf:resource="http://purl.org/dc/dcmitype/StillImage" />
        <dc:title></dc:title>
      </cc:Work>
    </rdf:RDF>
  </metadata>
  <g
     transform="translate(0,-302.36215)"
     id="layer1">
    <rect
       y="302.36221"
       x="0"
       height="749.99994"
       width="1050"
       id="rect826"
       style="opacity:1;vector-effect:none;fill:#ffffff;fill-opacity:1;stroke:none;stroke-width:12.3129921;stroke-linecap:butt;stroke-linejoin:miter;stroke-miterlimit:4;stroke-dasharray:none;stroke-dashoffset:0;stroke-opacity:0.16666667" />
    <rect
       y="-245.82999"
       x="-978.36218"
       height="147.20499"
       width="600"
       id="rect847"
       style="fill:#ffe680;fill-opacity:1;stroke:none;stroke-width:3.83673024;stroke-opacity:1"
       transform="matrix(0,-1,-1,0,0,0)" />
    <rect
       transform="rotate(-90)"
       style="fill:#aade87;fill-opacity:1;stroke:none;stroke-width:6.15903425;stroke-opacity:1"
       id="rect849"
       width="600"
       height="379.33701"
       x="-978.36218"
       y="245.82999" />
    <rect
       y="-781.84216"
       x="-978.36218"
       height="156.67519"
       width="600"
       id="rect853"
       style="fill:#ff9955;fill-opacity:1;stroke:none;stroke-width:3.95822167;stroke-opacity:1"
       transform="matrix(0,-1,-1,0,0,0)" />
    <rect
       y="968.36218"
       x="98"
       height="10"
       width="800"
       id="rect3336"
       style="fill:#000000;fill-opacity:1;stroke:none;stroke-opacity:1" />
    <path
       transform="matrix(-0.26878387,-0.01408636,0.01408636,-0.26878387,816.49447,1064.2539)"
       d="m -252.53814,413.94578 -48.50416,-24.52405 -48.50415,-24.52405 45.49053,-29.7438 45.49052,-29.74381 3.01363,54.26786 z"
       id="path3340-3"
       style="fill:#000000;fill-opacity:1;stroke:none;stroke-opacity:1" />
    <path
       d="m 184.83561,774.66597 q 0,0.63 -0.03,1.38 -0.03,0.72 -0.09,1.47 -0.06,0.72 -0.15,1.44 -0.09,0.72 -0.24,1.32 h -20.16 q -0.15,-0.6 -0.24,-1.32 -0.09,-0.72 -0.15,-1.44 -0.06,-0.75 -0.09,-1.47 -0.03,-0.72 -0.03,-1.35 0,-1.8 0.27,-3.36 0.27,-1.59 0.93,-2.73 0.63,-1.17 1.68,-1.83 1.05,-0.66 2.58,-0.66 1.71,0 2.82,0.81 1.08,0.81 1.62,2.16 0.54,-1.83 1.71,-2.91 1.17,-1.08 3.3,-1.08 3.12,0 4.71,2.31 1.56,2.28 1.56,7.26 z m -9.87,2.73 h 7.32 q 0.03,-0.33 0.06,-0.78 0.03,-0.39 0.06,-0.9 0,-0.54 0,-1.23 0,-1.29 -0.15,-2.43 -0.18,-1.17 -0.6,-2.04 -0.42,-0.87 -1.17,-1.38 -0.75,-0.54 -1.89,-0.54 -1.02,0 -1.71,0.39 -0.72,0.39 -1.14,1.14 -0.42,0.72 -0.6,1.74 -0.18,1.02 -0.18,2.28 z m -2.34,0 v -3.06 q 0,-1.08 -0.15,-2.04 -0.15,-0.96 -0.54,-1.65 -0.39,-0.72 -1.02,-1.11 -0.63,-0.42 -1.59,-0.42 -0.9,0 -1.5,0.42 -0.63,0.42 -0.99,1.17 -0.39,0.72 -0.57,1.71 -0.18,0.99 -0.18,2.1 0,1.11 0.03,1.74 0.03,0.63 0.09,1.14 z"
       style="font-style:normal;font-variant:normal;font-weight:normal;font-stretch:normal;font-size:30px;line-height:1.25;font-family:Ubuntu;-inkscape-font-specification:Ubuntu;text-align:center;letter-spacing:0px;word-spacing:0px;text-anchor:middle;fill:#000000;fill-opacity:1;stroke:none;stroke-width:1px;stroke-linecap:butt;stroke-linejoin:miter;stroke-opacity:1"
       id="path896" />
    <path
       d="m 176.85561,747.39598 q 1.86,0 3.36,0.54 1.5,0.54 2.58,1.53 1.08,0.96 1.68,2.31 0.57,1.35 0.57,2.94 0,1.59 -0.57,2.94 -0.6,1.35 -1.68,2.34 -1.08,0.96 -2.58,1.5 -1.5,0.54 -3.36,0.54 -1.83,0 -3.33,-0.54 -1.53,-0.54 -2.61,-1.5 -1.08,-0.99 -1.65,-2.34 -0.6,-1.35 -0.6,-2.94 0,-1.59 0.6,-2.94 0.57,-1.35 1.65,-2.31 1.08,-0.99 2.61,-1.53 1.5,-0.54 3.33,-0.54 z m 0,2.91 q -2.64,0 -4.17,1.2 -1.56,1.17 -1.56,3.21 0,2.04 1.56,3.24 1.53,1.17 4.17,1.17 2.64,0 4.2,-1.17 1.53,-1.2 1.53,-3.24 0,-2.04 -1.53,-3.21 -1.56,-1.2 -4.2,-1.2 z"
       style="font-style:normal;font-variant:normal;font-weight:normal;font-stretch:normal;font-size:30px;line-height:1.25;font-family:Ubuntu;-inkscape-font-specification:Ubuntu;text-align:center;letter-spacing:0px;word-spacing:0px;text-anchor:middle;fill:#000000;fill-opacity:1;stroke:none;stroke-width:1px;stroke-linecap:butt;stroke-linejoin:miter;stroke-opacity:1"
       id="path898" />
    <path
       d="m 176.85561,729.69603 q 1.86,0 3.36,0.54 1.5,0.54 2.58,1.53 1.08,0.96 1.68,2.31 0.57,1.35 0.57,2.94 0,1.59 -0.57,2.94 -0.6,1.35 -1.68,2.34 -1.08,0.96 -2.58,1.5 -1.5,0.54 -3.36,0.54 -1.83,0 -3.33,-0.54 -1.53,-0.54 -2.61,-1.5 -1.08,-0.99 -1.65,-2.34 -0.6,-1.35 -0.6,-2.94 0,-1.59 0.6,-2.94 0.57,-1.35 1.65,-2.31 1.08,-0.99 2.61,-1.53 1.5,-0.54 3.33,-0.54 z m 0,2.91 q -2.64,0 -4.17,1.2 -1.56,1.17 -1.56,3.21 0,2.04 1.56,3.24 1.53,1.17 4.17,1.17 2.64,0 4.2,-1.17 1.53,-1.2 1.53,-3.24 0,-2.04 -1.53,-3.21 -1.56,-1.2 -4.2,-1.2 z"
       style="font-style:normal;font-variant:normal;font-weight:normal;font-stretch:normal;font-size:30px;line-height:1.25;font-family:Ubuntu;-inkscape-font-specification:Ubuntu;text-align:center;letter-spacing:0px;word-spacing:0px;text-anchor:middle;fill:#000000;fill-opacity:1;stroke:none;stroke-width:1px;stroke-linecap:butt;stroke-linejoin:miter;stroke-opacity:1"
       id="path900" />
    <path
       d="m 169.05561,723.15608 v -5.91 h 2.34 v 5.91 h 7.2 q 1.17,0 1.95,-0.18 0.75,-0.18 1.2,-0.54 0.42,-0.36 0.6,-0.9 0.18,-0.54 0.18,-1.26 0,-1.26 -0.27,-2.01 -0.3,-0.78 -0.42,-1.08 l 2.31,-0.54 q 0.21,0.42 0.51,1.47 0.33,1.05 0.33,2.4 0,1.59 -0.39,2.64 -0.42,1.02 -1.23,1.65 -0.81,0.63 -1.98,0.9 -1.2,0.24 -2.76,0.24 h -13.92 l -0.48,-2.79 z"
       style="font-style:normal;font-variant:normal;font-weight:normal;font-stretch:normal;font-size:30px;line-height:1.25;font-family:Ubuntu;-inkscape-font-specification:Ubuntu;text-align:center;letter-spacing:0px;word-spacing:0px;text-anchor:middle;fill:#000000;fill-opacity:1;stroke:none;stroke-width:1px;stroke-linecap:butt;stroke-linejoin:miter;stroke-opacity:1"
       id="path902" />
    <path
       d="m 182.64561,710.07613 q 0,-1.71 -0.45,-2.52 -0.45,-0.84 -1.44,-0.84 -1.02,0 -1.62,0.81 -0.6,0.81 -1.35,2.67 -0.36,0.9 -0.72,1.74 -0.39,0.81 -0.9,1.41 -0.51,0.6 -1.23,0.96 -0.72,0.36 -1.77,0.36 -2.07,0 -3.27,-1.53 -1.23,-1.53 -1.23,-4.17 0,-0.66 0.09,-1.32 0.06,-0.66 0.18,-1.23 0.09,-0.57 0.21,-0.99 0.12,-0.45 0.21,-0.69 l 2.4,0.51 q -0.24,0.45 -0.48,1.41 -0.27,0.96 -0.27,2.31 0,1.17 0.48,2.04 0.45,0.87 1.44,0.87 0.51,0 0.9,-0.18 0.39,-0.21 0.72,-0.6 0.3,-0.42 0.57,-1.02 0.27,-0.6 0.57,-1.44 0.42,-1.11 0.84,-1.98 0.39,-0.87 0.93,-1.47 0.54,-0.63 1.32,-0.96 0.75,-0.33 1.86,-0.33 2.16,0 3.27,1.62 1.11,1.59 1.11,4.56 0,2.07 -0.36,3.24 -0.33,1.17 -0.51,1.59 l -2.4,-0.51 q 0.18,-0.48 0.54,-1.53 0.36,-1.05 0.36,-2.79 z"
       style="font-style:normal;font-variant:normal;font-weight:normal;font-stretch:normal;font-size:30px;line-height:1.25;font-family:Ubuntu;-inkscape-font-specification:Ubuntu;text-align:center;letter-spacing:0px;word-spacing:0px;text-anchor:middle;fill:#000000;fill-opacity:1;stroke:none;stroke-width:1px;stroke-linecap:butt;stroke-linejoin:miter;stroke-opacity:1"
       id="path904" />
    <path
       d="m 169.05561,697.71615 0,-5.91 h 2.34 l 0,5.91 h 7.2 q 1.17,0 1.95,-0.18 0.75,-0.18 1.2,-0.54 0.42,-0.36 0.6,-0.9 0.18,-0.54 0.18,-1.26 0,-1.26 -0.27,-2.01 -0.3,-0.78 -0.42,-1.08 l 2.31,-0.54 q 0.21,0.42 0.51,1.47 0.33,1.05 0.33,2.4 0,1.59 -0.39,2.64 -0.42,1.02 -1.23,1.65 -0.81,0.63 -1.98,0.9 -1.2,0.24 -2.76,0.24 h -13.92 l -0.48,-2.79 z"
       style="font-style:normal;font-variant:normal;font-weight:normal;font-stretch:normal;font-size:30px;line-height:1.25;font-family:Ubuntu;-inkscape-font-specification:Ubuntu;text-align:center;letter-spacing:0px;word-spacing:0px;text-anchor:middle;fill:#000000;fill-opacity:1;stroke:none;stroke-width:1px;stroke-linecap:butt;stroke-linejoin:miter;stroke-opacity:1"
       id="path906" />
    <path
       d="m 168.72561,682.50619 q 0,-0.36 0.06,-0.81 0.03,-0.48 0.12,-0.93 0.06,-0.45 0.15,-0.81 0.06,-0.39 0.12,-0.57 l 2.43,0.48 q -0.12,0.33 -0.27,1.11 -0.18,0.75 -0.18,1.95 0,0.78 0.18,1.56 0.15,0.75 0.21,0.99 h 13.11 v 2.79 h -14.94 q -0.36,-0.99 -0.66,-2.46 -0.33,-1.47 -0.33,-3.3 z"
       style="font-style:normal;font-variant:normal;font-weight:normal;font-stretch:normal;font-size:30px;line-height:1.25;font-family:Ubuntu;-inkscape-font-specification:Ubuntu;text-align:center;letter-spacing:0px;word-spacing:0px;text-anchor:middle;fill:#000000;fill-opacity:1;stroke:none;stroke-width:1px;stroke-linecap:butt;stroke-linejoin:miter;stroke-opacity:1"
       id="path908" />
    <path
       d="m 182.64561,671.40621 q 0,-0.99 -0.03,-1.74 -0.06,-0.78 -0.18,-1.29 h -4.65 q -0.15,0.3 -0.24,0.99 -0.12,0.66 -0.12,1.62 0,0.63 0.09,1.35 0.09,0.69 0.39,1.29 0.27,0.57 0.78,0.96 0.48,0.39 1.29,0.39 1.5,0 2.1,-0.96 0.57,-0.96 0.57,-2.61 z m -13.98,0.24 q 0,-1.68 0.45,-2.82 0.42,-1.17 1.23,-1.86 0.78,-0.72 1.89,-1.02 1.08,-0.3 2.4,-0.3 h 9.75 q 0.06,0.36 0.18,1.02 0.09,0.63 0.18,1.44 0.09,0.81 0.15,1.77 0.09,0.93 0.09,1.86 0,1.32 -0.27,2.43 -0.27,1.11 -0.84,1.92 -0.6,0.81 -1.56,1.26 -0.96,0.45 -2.31,0.45 -1.29,0 -2.22,-0.51 -0.93,-0.54 -1.5,-1.44 -0.57,-0.9 -0.84,-2.1 -0.27,-1.2 -0.27,-2.52 0,-0.42 0.06,-0.87 0.03,-0.45 0.12,-0.84 0.06,-0.42 0.12,-0.72 0.06,-0.3 0.09,-0.42 h -0.78 q -0.69,0 -1.35,0.15 -0.69,0.15 -1.2,0.54 -0.54,0.39 -0.84,1.08 -0.33,0.66 -0.33,1.74 0,1.38 0.21,2.43 0.18,1.02 0.39,1.53 l -2.31,0.33 q -0.24,-0.54 -0.45,-1.8 -0.24,-1.26 -0.24,-2.73 z"
       style="font-style:normal;font-variant:normal;font-weight:normal;font-stretch:normal;font-size:30px;line-height:1.25;font-family:Ubuntu;-inkscape-font-specification:Ubuntu;text-align:center;letter-spacing:0px;word-spacing:0px;text-anchor:middle;fill:#000000;fill-opacity:1;stroke:none;stroke-width:1px;stroke-linecap:butt;stroke-linejoin:miter;stroke-opacity:1"
       id="path910" />
    <path
       d="m 176.88561,650.19623 q -2.73,0 -4.2,1.35 -1.47,1.35 -1.47,3.6 0,1.26 0.09,1.98 0.09,0.69 0.21,1.11 h 9.84 q 0.42,-0.51 0.81,-1.47 0.39,-0.96 0.39,-2.1 0,-1.2 -0.42,-2.04 -0.45,-0.87 -1.2,-1.41 -0.78,-0.54 -1.8,-0.78 -1.05,-0.24 -2.25,-0.24 z m 0,-2.91 q 1.77,0 3.27,0.48 1.5,0.45 2.58,1.35 1.08,0.9 1.68,2.22 0.6,1.29 0.6,2.97 0,1.35 -0.36,2.4 -0.36,1.02 -0.69,1.53 h 6.24 v 2.79 h -20.67 q -0.24,-0.99 -0.51,-2.46 -0.3,-1.5 -0.3,-3.45 0,-1.8 0.57,-3.24 0.57,-1.44 1.62,-2.46 1.05,-1.02 2.58,-1.56 1.5,-0.57 3.39,-0.57 z"
       style="font-style:normal;font-variant:normal;font-weight:normal;font-stretch:normal;font-size:30px;line-height:1.25;font-family:Ubuntu;-inkscape-font-specification:Ubuntu;text-align:center;letter-spacing:0px;word-spacing:0px;text-anchor:middle;fill:#000000;fill-opacity:1;stroke:none;stroke-width:1px;stroke-linecap:butt;stroke-linejoin:miter;stroke-opacity:1"
       id="path912" />
    <path
       d="m 176.88561,632.52627 q -2.73,0 -4.2,1.35 -1.47,1.35 -1.47,3.6 0,1.26 0.09,1.98 0.09,0.69 0.21,1.11 h 9.84 q 0.42,-0.51 0.81,-1.47 0.39,-0.96 0.39,-2.1 0,-1.2 -0.42,-2.04 -0.45,-0.87 -1.2,-1.41 -0.78,-0.54 -1.8,-0.78 -1.05,-0.24 -2.25,-0.24 z m 0,-2.91 q 1.77,0 3.27,0.48 1.5,0.45 2.58,1.35 1.08,0.9 1.68,2.22 0.6,1.29 0.6,2.97 0,1.35 -0.36,2.4 -0.36,1.02 -0.69,1.53 h 6.24 v 2.79 h -20.67 q -0.24,-0.99 -0.51,-2.46 -0.3,-1.5 -0.3,-3.45 0,-1.8 0.57,-3.24 0.57,-1.44 1.62,-2.46 1.05,-1.02 2.58,-1.56 1.5,-0.57 3.39,-0.57 z"
       style="font-style:normal;font-variant:normal;font-weight:normal;font-stretch:normal;font-size:30px;line-height:1.25;font-family:Ubuntu;-inkscape-font-specification:Ubuntu;text-align:center;letter-spacing:0px;word-spacing:0px;text-anchor:middle;fill:#000000;fill-opacity:1;stroke:none;stroke-width:1px;stroke-linecap:butt;stroke-linejoin:miter;stroke-opacity:1"
       id="path914" />
    <path
       d="m 184.65561,622.8963 v 2.79 h -15.6 v -2.79 z m -18.42,1.41 q 0,0.75 -0.48,1.29 -0.51,0.51 -1.35,0.51 -0.84,0 -1.32,-0.51 -0.51,-0.54 -0.51,-1.29 0,-0.75 0.51,-1.26 0.48,-0.54 1.32,-0.54 0.84,0 1.35,0.54 0.48,0.51 0.48,1.26 z"
       style="font-style:normal;font-variant:normal;font-weight:normal;font-stretch:normal;font-size:30px;line-height:1.25;font-family:Ubuntu;-inkscape-font-specification:Ubuntu;text-align:center;letter-spacing:0px;word-spacing:0px;text-anchor:middle;fill:#000000;fill-opacity:1;stroke:none;stroke-width:1px;stroke-linecap:butt;stroke-linejoin:miter;stroke-opacity:1"
       id="path916" />
    <path
       d="m 169.50561,618.09635 q -0.24,-0.96 -0.51,-2.55 -0.27,-1.59 -0.27,-3.66 0,-1.86 0.54,-3.09 0.51,-1.23 1.47,-1.95 0.93,-0.75 2.25,-1.05 1.32,-0.3 2.91,-0.3 h 8.76 v 2.79 h -8.16 q -1.44,0 -2.46,0.21 -1.02,0.18 -1.65,0.63 -0.63,0.45 -0.9,1.2 -0.3,0.75 -0.3,1.86 0,0.45 0.03,0.93 0.03,0.48 0.09,0.93 0.03,0.42 0.09,0.78 0.06,0.33 0.09,0.48 h 13.17 v 2.79 z"
       style="font-style:normal;font-variant:normal;font-weight:normal;font-stretch:normal;font-size:30px;line-height:1.25;font-family:Ubuntu;-inkscape-font-specification:Ubuntu;text-align:center;letter-spacing:0px;word-spacing:0px;text-anchor:middle;fill:#000000;fill-opacity:1;stroke:none;stroke-width:1px;stroke-linecap:butt;stroke-linejoin:miter;stroke-opacity:1"
       id="path918" />
    <path
       d="m 183.09561,591.09636 q 0.24,0.36 0.63,1.41 0.36,1.02 0.36,2.4 0,1.41 -0.45,2.67 -0.45,1.23 -1.38,2.16 -0.96,0.93 -2.37,1.47 -1.41,0.54 -3.36,0.54 -1.71,0 -3.12,-0.51 -1.44,-0.51 -2.46,-1.47 -1.05,-0.99 -1.62,-2.4 -0.6,-1.41 -0.6,-3.18 0,-1.95 0.3,-3.39 0.27,-1.47 0.51,-2.46 h 13.92 q 3.6,0 5.22,1.86 1.62,1.86 1.62,5.64 0,1.47 -0.24,2.79 -0.24,1.29 -0.57,2.25 l -2.43,-0.51 q 0.33,-0.84 0.57,-2.04 0.27,-1.23 0.27,-2.55 0,-2.49 -0.99,-3.57 -0.99,-1.11 -3.15,-1.11 z m -11.58,0.03 q -0.12,0.42 -0.21,1.14 -0.12,0.69 -0.12,1.89 0,2.25 1.47,3.48 1.47,1.2 3.9,1.2 1.35,0 2.31,-0.33 0.96,-0.36 1.59,-0.93 0.63,-0.6 0.93,-1.35 0.3,-0.78 0.3,-1.59 0,-1.11 -0.3,-2.04 -0.33,-0.93 -0.75,-1.47 z"
       style="font-style:normal;font-variant:normal;font-weight:normal;font-stretch:normal;font-size:30px;line-height:1.25;font-family:Ubuntu;-inkscape-font-specification:Ubuntu;text-align:center;letter-spacing:0px;word-spacing:0px;text-anchor:middle;fill:#000000;fill-opacity:1;stroke:none;stroke-width:1px;stroke-linecap:butt;stroke-linejoin:miter;stroke-opacity:1"
       id="path920" />
    <path
       d="m 848.1654,1009.3488 v 3.99 h -6.27 v 16.8 h -4.68 v -16.8 h -6.27 v -3.99 z"
       style="font-style:normal;font-variant:normal;font-weight:bold;font-stretch:normal;font-size:30px;line-height:1.25;font-family:Ubuntu;-inkscape-font-specification:Ubuntu;letter-spacing:0px;word-spacing:0px;fill:#000000;fill-opacity:1;stroke:none;stroke-width:1px;stroke-linecap:butt;stroke-linejoin:miter;stroke-opacity:1"
       id="path835" />
    <path
       d="m 855.33535,1030.1388 h -4.47 v -15.78 h 4.47 z m 0.42,-20.34 q 0,1.23 -0.81,1.95 -0.78,0.69 -1.86,0.69 -1.08,0 -1.89,-0.69 -0.78,-0.72 -0.78,-1.95 0,-1.23 0.78,-1.92 0.81,-0.72 1.89,-0.72 1.08,0 1.86,0.72 0.81,0.69 0.81,1.92 z"
       style="font-style:normal;font-variant:normal;font-weight:bold;font-stretch:normal;font-size:30px;line-height:1.25;font-family:Ubuntu;-inkscape-font-specification:Ubuntu;letter-spacing:0px;word-spacing:0px;fill:#000000;fill-opacity:1;stroke:none;stroke-width:1px;stroke-linecap:butt;stroke-linejoin:miter;stroke-opacity:1"
       id="path837" />
    <path
       d="m 868.20534,1021.7688 q 0,-2.16 -0.57,-3.06 -0.54,-0.9 -1.89,-0.9 -0.42,0 -0.87,0.06 -0.45,0.03 -0.87,0.09 v 12.18 h -4.47 v -15.24 q 0.57,-0.15 1.32,-0.3 0.78,-0.18 1.62,-0.3 0.87,-0.15 1.77,-0.21 0.9,-0.09 1.77,-0.09 1.71,0 2.76,0.45 1.08,0.42 1.77,1.02 0.96,-0.69 2.19,-1.08 1.26,-0.39 2.31,-0.39 1.89,0 3.09,0.54 1.23,0.51 1.95,1.47 0.72,0.96 0.99,2.28 0.27,1.32 0.27,2.94 v 8.91 h -4.47 v -8.37 q 0,-2.16 -0.57,-3.06 -0.54,-0.9 -1.89,-0.9 -0.36,0 -1.02,0.18 -0.63,0.18 -1.05,0.45 0.21,0.69 0.27,1.47 0.06,0.75 0.06,1.62 v 8.61 h -4.47 z"
       style="font-style:normal;font-variant:normal;font-weight:bold;font-stretch:normal;font-size:30px;line-height:1.25;font-family:Ubuntu;-inkscape-font-specification:Ubuntu;letter-spacing:0px;word-spacing:0px;fill:#000000;fill-opacity:1;stroke:none;stroke-width:1px;stroke-linecap:butt;stroke-linejoin:miter;stroke-opacity:1"
       id="path839" />
    <path
       d="m 884.64532,1022.3688 q 0,-2.1 0.63,-3.66 0.66,-1.59 1.71,-2.64 1.05,-1.05 2.4,-1.59 1.38,-0.54 2.82,-0.54 3.36,0 5.31,2.07 1.95,2.04 1.95,6.03 0,0.39 -0.03,0.87 -0.03,0.45 -0.06,0.81 h -10.14 q 0.15,1.38 1.29,2.19 1.14,0.81 3.06,0.81 1.23,0 2.4,-0.21 1.2,-0.24 1.95,-0.57 l 0.6,3.63 q -0.36,0.18 -0.96,0.36 -0.6,0.18 -1.35,0.3 -0.72,0.15 -1.56,0.24 -0.84,0.09 -1.68,0.09 -2.13,0 -3.72,-0.63 -1.56,-0.63 -2.61,-1.71 -1.02,-1.11 -1.53,-2.61 -0.48,-1.5 -0.48,-3.24 z m 10.5,-1.71 q -0.03,-0.57 -0.21,-1.11 -0.15,-0.54 -0.51,-0.96 -0.33,-0.42 -0.87,-0.69 -0.51,-0.27 -1.29,-0.27 -0.75,0 -1.29,0.27 -0.54,0.24 -0.9,0.66 -0.36,0.42 -0.57,0.99 -0.18,0.54 -0.27,1.11 z"
       style="font-style:normal;font-variant:normal;font-weight:bold;font-stretch:normal;font-size:30px;line-height:1.25;font-family:Ubuntu;-inkscape-font-specification:Ubuntu;letter-spacing:0px;word-spacing:0px;fill:#000000;fill-opacity:1;stroke:none;stroke-width:1px;stroke-linecap:butt;stroke-linejoin:miter;stroke-opacity:1"
       id="path841" />
    <path
       d="m 417.58417,745.45835 q 0,-4.38 1.68,-6.72 1.65,-2.37 4.95,-2.37 1.8,0 3.09,0.66 1.26,0.63 2.07,1.86 0.78,1.2 1.14,2.94 0.36,1.74 0.36,3.93 v 2.31 h 7.71 v 2.91 h -20.49 q -0.3,-1.23 -0.39,-2.73 -0.12,-1.53 -0.12,-2.79 z m 2.55,-0.24 q 0,1.86 0.09,2.85 h 8.16 v -2.19 q 0,-1.5 -0.18,-2.7 -0.21,-1.2 -0.66,-2.01 -0.48,-0.84 -1.29,-1.29 -0.81,-0.45 -2.07,-0.45 -1.2,0 -1.98,0.48 -0.78,0.45 -1.23,1.26 -0.48,0.78 -0.66,1.83 -0.18,1.05 -0.18,2.22 z"
       style="font-style:normal;font-variant:normal;font-weight:normal;font-stretch:normal;font-size:30px;line-height:1.25;font-family:Ubuntu;-inkscape-font-specification:Ubuntu;text-align:center;letter-spacing:0px;word-spacing:0px;text-anchor:middle;fill:#000000;fill-opacity:1;stroke:none;stroke-width:1px;stroke-linecap:butt;stroke-linejoin:miter;stroke-opacity:1"
       id="path861" />
    <path
       d="m 422.65417,727.15835 q 0,-0.36 0.06,-0.81 0.03,-0.48 0.12,-0.93 0.06,-0.45 0.15,-0.81 0.06,-0.39 0.12,-0.57 l 2.43,0.48 q -0.12,0.33 -0.27,1.11 -0.18,0.75 -0.18,1.95 0,0.78 0.18,1.56 0.15,0.75 0.21,0.99 h 13.11 v 2.79 h -14.94 q -0.36,-0.99 -0.66,-2.46 -0.33,-1.47 -0.33,-3.3 z"
       style="font-style:normal;font-variant:normal;font-weight:normal;font-stretch:normal;font-size:30px;line-height:1.25;font-family:Ubuntu;-inkscape-font-specification:Ubuntu;text-align:center;letter-spacing:0px;word-spacing:0px;text-anchor:middle;fill:#000000;fill-opacity:1;stroke:none;stroke-width:1px;stroke-linecap:butt;stroke-linejoin:miter;stroke-opacity:1"
       id="path863" />
    <path
       d="m 430.78417,707.56836 q 1.86,0 3.36,0.54 1.5,0.54 2.58,1.53 1.08,0.96 1.68,2.31 0.57,1.35 0.57,2.94 0,1.59 -0.57,2.94 -0.6,1.35 -1.68,2.34 -1.08,0.96 -2.58,1.5 -1.5,0.54 -3.36,0.54 -1.83,0 -3.33,-0.54 -1.53,-0.54 -2.61,-1.5 -1.08,-0.99 -1.65,-2.34 -0.6,-1.35 -0.6,-2.94 0,-1.59 0.6,-2.94 0.57,-1.35 1.65,-2.31 1.08,-0.99 2.61,-1.53 1.5,-0.54 3.33,-0.54 z m 0,2.91 q -2.64,0 -4.17,1.2 -1.56,1.17 -1.56,3.21 0,2.04 1.56,3.24 1.53,1.17 4.17,1.17 2.64,0 4.2,-1.17 1.53,-1.2 1.53,-3.24 0,-2.04 -1.53,-3.21 -1.56,-1.2 -4.2,-1.2 z"
       style="font-style:normal;font-variant:normal;font-weight:normal;font-stretch:normal;font-size:30px;line-height:1.25;font-family:Ubuntu;-inkscape-font-specification:Ubuntu;text-align:center;letter-spacing:0px;word-spacing:0px;text-anchor:middle;fill:#000000;fill-opacity:1;stroke:none;stroke-width:1px;stroke-linecap:butt;stroke-linejoin:miter;stroke-opacity:1"
       id="path865" />
    <path
       d="m 438.94417,696.85842 q 0,1.89 -0.6,3.33 -0.6,1.41 -1.68,2.4 -1.08,0.96 -2.55,1.44 -1.5,0.48 -3.3,0.48 -1.8,0 -3.3,-0.51 -1.5,-0.54 -2.58,-1.5 -1.11,-0.96 -1.71,-2.34 -0.63,-1.41 -0.63,-3.12 0,-1.05 0.18,-2.1 0.18,-1.05 0.57,-2.01 l 2.37,0.63 q -0.3,0.63 -0.48,1.47 -0.18,0.81 -0.18,1.74 0,2.34 1.47,3.6 1.47,1.23 4.29,1.23 1.26,0 2.31,-0.27 1.05,-0.3 1.8,-0.9 0.75,-0.63 1.17,-1.59 0.39,-0.96 0.39,-2.34 0,-1.11 -0.21,-2.01 -0.21,-0.9 -0.45,-1.41 l 2.34,-0.39 q 0.15,0.24 0.3,0.69 0.12,0.45 0.21,1.02 0.12,0.57 0.18,1.23 0.09,0.63 0.09,1.23 z"
       style="font-style:normal;font-variant:normal;font-weight:normal;font-stretch:normal;font-size:30px;line-height:1.25;font-family:Ubuntu;-inkscape-font-specification:Ubuntu;text-align:center;letter-spacing:0px;word-spacing:0px;text-anchor:middle;fill:#000000;fill-opacity:1;stroke:none;stroke-width:1px;stroke-linecap:butt;stroke-linejoin:miter;stroke-opacity:1"
       id="path867" />
    <path
       d="m 430.81417,690.55847 q -2.07,0 -3.6,-0.6 -1.56,-0.6 -2.58,-1.59 -1.02,-0.99 -1.53,-2.28 -0.51,-1.29 -0.51,-2.64 0,-3.15 1.98,-4.83 1.95,-1.68 5.97,-1.68 0.18,0 0.48,0 0.27,0 0.51,0.03 v 10.68 q 2.43,-0.18 3.69,-1.41 1.26,-1.23 1.26,-3.84 0,-1.47 -0.24,-2.46 -0.27,-1.02 -0.51,-1.53 l 2.34,-0.39 q 0.27,0.51 0.57,1.8 0.3,1.26 0.3,2.88 0,2.04 -0.6,3.54 -0.63,1.47 -1.71,2.43 -1.08,0.96 -2.55,1.44 -1.5,0.45 -3.27,0.45 z m -1.53,-10.71 q -1.89,-0.03 -3.09,0.96 -1.23,0.96 -1.23,2.67 0,0.96 0.39,1.71 0.36,0.72 0.96,1.23 0.6,0.51 1.38,0.81 0.78,0.27 1.59,0.36 z"
       style="font-style:normal;font-variant:normal;font-weight:normal;font-stretch:normal;font-size:30px;line-height:1.25;font-family:Ubuntu;-inkscape-font-specification:Ubuntu;text-align:center;letter-spacing:0px;word-spacing:0px;text-anchor:middle;fill:#000000;fill-opacity:1;stroke:none;stroke-width:1px;stroke-linecap:butt;stroke-linejoin:miter;stroke-opacity:1"
       id="path869" />
    <path
       d="m 436.57417,669.28853 q 0,-1.71 -0.45,-2.52 -0.45,-0.84 -1.44,-0.84 -1.02,0 -1.62,0.81 -0.6,0.81 -1.35,2.67 -0.36,0.9 -0.72,1.74 -0.39,0.81 -0.9,1.41 -0.51,0.6 -1.23,0.96 -0.72,0.36 -1.77,0.36 -2.07,0 -3.27,-1.53 -1.23,-1.53 -1.23,-4.17 0,-0.66 0.09,-1.32 0.06,-0.66 0.18,-1.23 0.09,-0.57 0.21,-0.99 0.12,-0.45 0.21,-0.69 l 2.4,0.51 q -0.24,0.45 -0.48,1.41 -0.27,0.96 -0.27,2.31 0,1.17 0.48,2.04 0.45,0.87 1.44,0.87 0.51,0 0.9,-0.18 0.39,-0.21 0.72,-0.6 0.3,-0.42 0.57,-1.02 0.27,-0.6 0.57,-1.44 0.42,-1.11 0.84,-1.98 0.39,-0.87 0.93,-1.47 0.54,-0.63 1.32,-0.96 0.75,-0.33 1.86,-0.33 2.16,0 3.27,1.62 1.11,1.59 1.11,4.56 0,2.07 -0.36,3.24 -0.33,1.17 -0.51,1.59 l -2.4,-0.51 q 0.18,-0.48 0.54,-1.53 0.36,-1.05 0.36,-2.79 z"
       style="font-style:normal;font-variant:normal;font-weight:normal;font-stretch:normal;font-size:30px;line-height:1.25;font-family:Ubuntu;-inkscape-font-specification:Ubuntu;text-align:center;letter-spacing:0px;word-spacing:0px;text-anchor:middle;fill:#000000;fill-opacity:1;stroke:none;stroke-width:1px;stroke-linecap:butt;stroke-linejoin:miter;stroke-opacity:1"
       id="path871" />
    <path
       d="m 436.57417,655.90855 q 0,-1.71 -0.45,-2.52 -0.45,-0.84 -1.44,-0.84 -1.02,0 -1.62,0.81 -0.6,0.81 -1.35,2.67 -0.36,0.9 -0.72,1.74 -0.39,0.81 -0.9,1.41 -0.51,0.6 -1.23,0.96 -0.72,0.36 -1.77,0.36 -2.07,0 -3.27,-1.53 -1.23,-1.53 -1.23,-4.17 0,-0.66 0.09,-1.32 0.06,-0.66 0.18,-1.23 0.09,-0.57 0.21,-0.99 0.12,-0.45 0.21,-0.69 l 2.4,0.51 q -0.24,0.45 -0.48,1.41 -0.27,0.96 -0.27,2.31 0,1.17 0.48,2.04 0.45,0.87 1.44,0.87 0.51,0 0.9,-0.18 0.39,-0.21 0.72,-0.6 0.3,-0.42 0.57,-1.02 0.27,-0.6 0.57,-1.44 0.42,-1.11 0.84,-1.98 0.39,-0.87 0.93,-1.47 0.54,-0.63 1.32,-0.96 0.75,-0.33 1.86,-0.33 2.16,0 3.27,1.62 1.11,1.59 1.11,4.56 0,2.07 -0.36,3.24 -0.33,1.17 -0.51,1.59 l -2.4,-0.51 q 0.18,-0.48 0.54,-1.53 0.36,-1.05 0.36,-2.79 z"
       style="font-style:normal;font-variant:normal;font-weight:normal;font-stretch:normal;font-size:30px;line-height:1.25;font-family:Ubuntu;-inkscape-font-specification:Ubuntu;text-align:center;letter-spacing:0px;word-spacing:0px;text-anchor:middle;fill:#000000;fill-opacity:1;stroke:none;stroke-width:1px;stroke-linecap:butt;stroke-linejoin:miter;stroke-opacity:1"
       id="path873" />
    <path
       d="m 438.13417,633.73858 q 0.24,0.96 0.51,2.55 0.27,1.56 0.27,3.63 0,1.8 -0.51,3.03 -0.54,1.23 -1.5,1.98 -0.96,0.75 -2.25,1.08 -1.32,0.33 -2.91,0.33 h -8.76 v -2.79 h 8.16 q 2.85,0 4.08,-0.9 1.23,-0.9 1.23,-3.03 0,-0.45 -0.03,-0.93 -0.03,-0.48 -0.06,-0.9 -0.06,-0.42 -0.09,-0.75 -0.06,-0.36 -0.12,-0.51 h -13.17 v -2.79 z"
       style="font-style:normal;font-variant:normal;font-weight:normal;font-stretch:normal;font-size:30px;line-height:1.25;font-family:Ubuntu;-inkscape-font-specification:Ubuntu;text-align:center;letter-spacing:0px;word-spacing:0px;text-anchor:middle;fill:#000000;fill-opacity:1;stroke:none;stroke-width:1px;stroke-linecap:butt;stroke-linejoin:miter;stroke-opacity:1"
       id="path875" />
    <path
       d="m 436.57417,625.30859 q 0,-1.71 -0.45,-2.52 -0.45,-0.84 -1.44,-0.84 -1.02,0 -1.62,0.81 -0.6,0.81 -1.35,2.67 -0.36,0.9 -0.72,1.74 -0.39,0.81 -0.9,1.41 -0.51,0.6 -1.23,0.96 -0.72,0.36 -1.77,0.36 -2.07,0 -3.27,-1.53 -1.23,-1.53 -1.23,-4.17 0,-0.66 0.09,-1.32 0.06,-0.66 0.18,-1.23 0.09,-0.57 0.21,-0.99 0.12,-0.45 0.21,-0.69 l 2.4,0.51 q -0.24,0.45 -0.48,1.41 -0.27,0.96 -0.27,2.31 0,1.17 0.48,2.04 0.45,0.87 1.44,0.87 0.51,0 0.9,-0.18 0.39,-0.21 0.72,-0.6 0.3,-0.42 0.57,-1.02 0.27,-0.6 0.57,-1.44 0.42,-1.11 0.84,-1.98 0.39,-0.87 0.93,-1.47 0.54,-0.63 1.32,-0.96 0.75,-0.33 1.86,-0.33 2.16,0 3.27,1.62 1.11,1.59 1.11,4.56 0,2.07 -0.36,3.24 -0.33,1.17 -0.51,1.59 l -2.4,-0.51 q 0.18,-0.48 0.54,-1.53 0.36,-1.05 0.36,-2.79 z"
       style="font-style:normal;font-variant:normal;font-weight:normal;font-stretch:normal;font-size:30px;line-height:1.25;font-family:Ubuntu;-inkscape-font-specification:Ubuntu;text-align:center;letter-spacing:0px;word-spacing:0px;text-anchor:middle;fill:#000000;fill-opacity:1;stroke:none;stroke-width:1px;stroke-linecap:butt;stroke-linejoin:miter;stroke-opacity:1"
       id="path877" />
    <path
       d="m 476.38417,731.86831 q -0.06,2.58 -1.11,3.66 -1.05,1.08 -3.27,1.08 h -18.72 l -0.48,-2.79 h 18.75 q 0.69,0 1.14,-0.12 0.45,-0.12 0.72,-0.39 0.27,-0.27 0.42,-0.72 0.12,-0.45 0.21,-1.11 z"
       style="font-style:normal;font-variant:normal;font-weight:normal;font-stretch:normal;font-size:30px;line-height:1.25;font-family:Ubuntu;-inkscape-font-specification:Ubuntu;text-align:center;letter-spacing:0px;word-spacing:0px;text-anchor:middle;fill:#000000;fill-opacity:1;stroke:none;stroke-width:1px;stroke-linecap:butt;stroke-linejoin:miter;stroke-opacity:1"
       id="path879" />
    <path
       d="m 476.08417,725.56834 v 2.79 h -15.6 v -2.79 z m -18.42,1.41 q 0,0.75 -0.48,1.29 -0.51,0.51 -1.35,0.51 -0.84,0 -1.32,-0.51 -0.51,-0.54 -0.51,-1.29 0,-0.75 0.51,-1.26 0.48,-0.54 1.32,-0.54 0.84,0 1.35,0.54 0.48,0.51 0.48,1.26 z"
       style="font-style:normal;font-variant:normal;font-weight:normal;font-stretch:normal;font-size:30px;line-height:1.25;font-family:Ubuntu;-inkscape-font-specification:Ubuntu;text-align:center;letter-spacing:0px;word-spacing:0px;text-anchor:middle;fill:#000000;fill-opacity:1;stroke:none;stroke-width:1px;stroke-linecap:butt;stroke-linejoin:miter;stroke-opacity:1"
       id="path881" />
    <path
       d="m 452.80417,714.67839 q 0,-1.23 0.18,-2.1 0.18,-0.9 0.33,-1.26 l 2.4,0.51 q -0.18,0.36 -0.33,1.02 -0.18,0.66 -0.18,1.62 0,1.95 1.08,2.73 1.05,0.78 2.85,0.78 h 1.35 v -6 h 2.34 v 6 h 13.26 v 2.79 h -17.01 q -3,0 -4.62,-1.47 -1.65,-1.47 -1.65,-4.62 z"
       style="font-style:normal;font-variant:normal;font-weight:normal;font-stretch:normal;font-size:30px;line-height:1.25;font-family:Ubuntu;-inkscape-font-specification:Ubuntu;text-align:center;letter-spacing:0px;word-spacing:0px;text-anchor:middle;fill:#000000;fill-opacity:1;stroke:none;stroke-width:1px;stroke-linecap:butt;stroke-linejoin:miter;stroke-opacity:1"
       id="path883" />
    <path
       d="m 468.31417,710.0584 q -2.07,0 -3.6,-0.6 -1.56,-0.6 -2.58,-1.59 -1.02,-0.99 -1.53,-2.28 -0.51,-1.29 -0.51,-2.64 0,-3.15 1.98,-4.83 1.95,-1.68 5.97,-1.68 0.18,0 0.48,0 0.27,0 0.51,0.03 v 10.68 q 2.43,-0.18 3.69,-1.41 1.26,-1.23 1.26,-3.84 0,-1.47 -0.24,-2.46 -0.27,-1.02 -0.51,-1.53 l 2.34,-0.39 q 0.27,0.51 0.57,1.8 0.3,1.26 0.3,2.88 0,2.04 -0.6,3.54 -0.63,1.47 -1.71,2.43 -1.08,0.96 -2.55,1.44 -1.5,0.45 -3.27,0.45 z m -1.53,-10.71 q -1.89,-0.03 -3.09,0.96 -1.23,0.96 -1.23,2.67 0,0.96 0.39,1.71 0.36,0.72 0.96,1.23 0.6,0.51 1.38,0.81 0.78,0.27 1.59,0.36 z"
       style="font-style:normal;font-variant:normal;font-weight:normal;font-stretch:normal;font-size:30px;line-height:1.25;font-family:Ubuntu;-inkscape-font-specification:Ubuntu;text-align:center;letter-spacing:0px;word-spacing:0px;text-anchor:middle;fill:#000000;fill-opacity:1;stroke:none;stroke-width:1px;stroke-linecap:butt;stroke-linejoin:miter;stroke-opacity:1"
       id="path885" />
    <path
       d="m 460.48417,689.80846 v -5.91 h 2.34 v 5.91 h 7.2 q 1.17,0 1.95,-0.18 0.75,-0.18 1.2,-0.54 0.42,-0.36 0.6,-0.9 0.18,-0.54 0.18,-1.26 0,-1.26 -0.27,-2.01 -0.3,-0.78 -0.42,-1.08 l 2.31,-0.54 q 0.21,0.42 0.51,1.47 0.33,1.05 0.33,2.4 0,1.59 -0.39,2.64 -0.42,1.02 -1.23,1.65 -0.81,0.63 -1.98,0.9 -1.2,0.24 -2.76,0.24 h -13.92 l -0.48,-2.79 z"
       style="font-style:normal;font-variant:normal;font-weight:normal;font-stretch:normal;font-size:30px;line-height:1.25;font-family:Ubuntu;-inkscape-font-specification:Ubuntu;text-align:center;letter-spacing:0px;word-spacing:0px;text-anchor:middle;fill:#000000;fill-opacity:1;stroke:none;stroke-width:1px;stroke-linecap:butt;stroke-linejoin:miter;stroke-opacity:1"
       id="path887" />
    <path
       d="m 476.08417,677.5685 v 2.79 h -15.6 v -2.79 z m -18.42,1.41 q 0,0.75 -0.48,1.29 -0.51,0.51 -1.35,0.51 -0.84,0 -1.32,-0.51 -0.51,-0.54 -0.51,-1.29 0,-0.75 0.51,-1.26 0.48,-0.54 1.32,-0.54 0.84,0 1.35,0.54 0.48,0.51 0.48,1.26 z"
       style="font-style:normal;font-variant:normal;font-weight:normal;font-stretch:normal;font-size:30px;line-height:1.25;font-family:Ubuntu;-inkscape-font-specification:Ubuntu;text-align:center;letter-spacing:0px;word-spacing:0px;text-anchor:middle;fill:#000000;fill-opacity:1;stroke:none;stroke-width:1px;stroke-linecap:butt;stroke-linejoin:miter;stroke-opacity:1"
       id="path889" />
    <path
       d="m 460.93417,672.76855 q -0.24,-0.96 -0.51,-2.52 -0.27,-1.59 -0.27,-3.66 0,-1.5 0.42,-2.52 0.39,-1.02 1.17,-1.71 -0.15,-0.21 -0.42,-0.66 -0.27,-0.45 -0.51,-1.11 -0.27,-0.66 -0.45,-1.47 -0.21,-0.81 -0.21,-1.74 0,-1.8 0.54,-2.94 0.51,-1.14 1.47,-1.77 0.96,-0.66 2.28,-0.87 1.32,-0.24 2.88,-0.24 h 8.76 v 2.79 h -8.16 q -1.38,0 -2.37,0.15 -0.99,0.12 -1.65,0.51 -0.66,0.36 -0.96,1.02 -0.33,0.63 -0.33,1.65 0,1.41 0.39,2.34 0.36,0.9 0.66,1.23 0.78,-0.24 1.71,-0.36 0.93,-0.12 1.95,-0.12 h 8.76 v 2.79 h -8.16 q -1.38,0 -2.37,0.15 -0.99,0.15 -1.65,0.54 -0.66,0.36 -0.96,1.02 -0.33,0.63 -0.33,1.62 0,0.42 0.03,0.9 0.03,0.48 0.09,0.93 0.03,0.42 0.09,0.78 0.06,0.36 0.09,0.48 h 13.17 v 2.79 z"
       style="font-style:normal;font-variant:normal;font-weight:normal;font-stretch:normal;font-size:30px;line-height:1.25;font-family:Ubuntu;-inkscape-font-specification:Ubuntu;text-align:center;letter-spacing:0px;word-spacing:0px;text-anchor:middle;fill:#000000;fill-opacity:1;stroke:none;stroke-width:1px;stroke-linecap:butt;stroke-linejoin:miter;stroke-opacity:1"
       id="path891" />
    <path
       d="m 468.31417,647.80861 q -2.07,0 -3.6,-0.6 -1.56,-0.6 -2.58,-1.59 -1.02,-0.99 -1.53,-2.28 -0.51,-1.29 -0.51,-2.64 0,-3.15 1.98,-4.83 1.95,-1.68 5.97,-1.68 0.18,0 0.48,0 0.27,0 0.51,0.03 v 10.68 q 2.43,-0.18 3.69,-1.41 1.26,-1.23 1.26,-3.84 0,-1.47 -0.24,-2.46 -0.27,-1.02 -0.51,-1.53 l 2.34,-0.39 q 0.27,0.51 0.57,1.8 0.3,1.26 0.3,2.88 0,2.04 -0.6,3.54 -0.63,1.47 -1.71,2.43 -1.08,0.96 -2.55,1.44 -1.5,0.45 -3.27,0.45 z m -1.53,-10.71 q -1.89,-0.03 -3.09,0.96 -1.23,0.96 -1.23,2.67 0,0.96 0.39,1.71 0.36,0.72 0.96,1.23 0.6,0.51 1.38,0.81 0.78,0.27 1.59,0.36 z"
       style="font-style:normal;font-variant:normal;font-weight:normal;font-stretch:normal;font-size:30px;line-height:1.25;font-family:Ubuntu;-inkscape-font-specification:Ubuntu;text-align:center;letter-spacing:0px;word-spacing:0px;text-anchor:middle;fill:#000000;fill-opacity:1;stroke:none;stroke-width:1px;stroke-linecap:butt;stroke-linejoin:miter;stroke-opacity:1"
       id="path893" />
    <path
       d="m 707.58558,745.30586 q 0,-4.56 -3.12,-4.56 -0.96,0 -1.62,0.42 -0.69,0.39 -1.17,1.08 -0.51,0.69 -0.87,1.59 -0.36,0.87 -0.72,1.86 -0.39,1.14 -0.87,2.16 -0.51,1.02 -1.17,1.77 -0.69,0.75 -1.62,1.2 -0.93,0.42 -2.25,0.42 -2.73,0 -4.26,-1.86 -1.53,-1.86 -1.53,-5.13 0,-1.89 0.42,-3.42 0.39,-1.56 0.87,-2.28 l 2.37,0.93 q -0.39,0.63 -0.75,1.89 -0.39,1.23 -0.39,2.88 0,0.84 0.18,1.56 0.18,0.72 0.54,1.26 0.36,0.54 0.93,0.87 0.54,0.3 1.29,0.3 0.84,0 1.41,-0.33 0.57,-0.33 1.02,-0.93 0.42,-0.6 0.78,-1.38 0.36,-0.81 0.72,-1.77 0.54,-1.35 1.08,-2.46 0.54,-1.14 1.29,-1.95 0.75,-0.84 1.8,-1.29 1.02,-0.45 2.49,-0.45 2.73,0 4.2,2.01 1.47,1.98 1.47,5.61 0,1.23 -0.18,2.28 -0.15,1.02 -0.36,1.83 -0.24,0.81 -0.48,1.41 -0.27,0.57 -0.45,0.9 l -2.4,-0.87 q 0.39,-0.69 0.87,-2.1 0.48,-1.41 0.48,-3.45 z"
       style="font-style:normal;font-variant:normal;font-weight:normal;font-stretch:normal;font-size:30px;line-height:1.25;font-family:Ubuntu;-inkscape-font-specification:Ubuntu;text-align:center;letter-spacing:0px;word-spacing:0px;text-anchor:middle;fill:#000000;fill-opacity:1;stroke:none;stroke-width:1px;stroke-linecap:butt;stroke-linejoin:miter;stroke-opacity:1"
       id="path844" />
    <path
       d="m 709.65558,734.35587 h -22.8 l -0.48,-2.79 h 7.98 q -0.3,-0.78 -0.45,-1.65 -0.18,-0.9 -0.18,-1.77 0,-1.86 0.54,-3.09 0.51,-1.23 1.47,-1.95 0.93,-0.75 2.25,-1.05 1.32,-0.3 2.91,-0.3 h 8.76 v 2.79 h -8.16 q -1.44,0 -2.46,0.21 -1.02,0.18 -1.65,0.63 -0.63,0.45 -0.9,1.2 -0.3,0.75 -0.3,1.86 0,0.45 0.06,0.93 0.06,0.48 0.15,0.93 0.06,0.42 0.15,0.78 0.09,0.33 0.15,0.48 h 12.96 z"
       style="font-style:normal;font-variant:normal;font-weight:normal;font-stretch:normal;font-size:30px;line-height:1.25;font-family:Ubuntu;-inkscape-font-specification:Ubuntu;text-align:center;letter-spacing:0px;word-spacing:0px;text-anchor:middle;fill:#000000;fill-opacity:1;stroke:none;stroke-width:1px;stroke-linecap:butt;stroke-linejoin:miter;stroke-opacity:1"
       id="path846" />
    <path
       d="m 709.20558,704.8059 q 0.24,0.96 0.51,2.55 0.27,1.56 0.27,3.63 0,1.8 -0.51,3.03 -0.54,1.23 -1.5,1.98 -0.96,0.75 -2.25,1.08 -1.32,0.33 -2.91,0.33 h -8.76 v -2.79 h 8.16 q 2.85,0 4.08,-0.9 1.23,-0.9 1.23,-3.03 0,-0.45 -0.03,-0.93 -0.03,-0.48 -0.06,-0.9 -0.06,-0.42 -0.09,-0.75 -0.06,-0.36 -0.12,-0.51 h -13.17 v -2.79 z"
       style="font-style:normal;font-variant:normal;font-weight:normal;font-stretch:normal;font-size:30px;line-height:1.25;font-family:Ubuntu;-inkscape-font-specification:Ubuntu;text-align:center;letter-spacing:0px;word-spacing:0px;text-anchor:middle;fill:#000000;fill-opacity:1;stroke:none;stroke-width:1px;stroke-linecap:butt;stroke-linejoin:miter;stroke-opacity:1"
       id="path848" />
    <path
       d="m 694.05558,697.39592 v -5.91 h 2.34 v 5.91 h 7.2 q 1.17,0 1.95,-0.18 0.75,-0.18 1.2,-0.54 0.42,-0.36 0.6,-0.9 0.18,-0.54 0.18,-1.26 0,-1.26 -0.27,-2.01 -0.3,-0.78 -0.42,-1.08 l 2.31,-0.54 q 0.21,0.42 0.51,1.47 0.33,1.05 0.33,2.4 0,1.59 -0.39,2.64 -0.42,1.02 -1.23,1.65 -0.81,0.63 -1.98,0.9 -1.2,0.24 -2.76,0.24 h -13.92 l -0.48,-2.79 z"
       style="font-style:normal;font-variant:normal;font-weight:normal;font-stretch:normal;font-size:30px;line-height:1.25;font-family:Ubuntu;-inkscape-font-specification:Ubuntu;text-align:center;letter-spacing:0px;word-spacing:0px;text-anchor:middle;fill:#000000;fill-opacity:1;stroke:none;stroke-width:1px;stroke-linecap:butt;stroke-linejoin:miter;stroke-opacity:1"
       id="path850" />
    <path
       d="m 697.35558,678.28602 q -0.42,0.51 -0.81,1.47 -0.39,0.96 -0.39,2.1 0,1.2 0.45,2.07 0.42,0.84 1.2,1.38 0.75,0.54 1.8,0.78 1.05,0.24 2.25,0.24 2.73,0 4.23,-1.35 1.47,-1.35 1.47,-3.6 0,-1.14 -0.09,-1.89 -0.12,-0.78 -0.24,-1.2 z m -10.5,0 -0.48,-2.79 h 22.83 q 0.27,0.96 0.54,2.46 0.27,1.5 0.27,3.45 0,1.8 -0.57,3.24 -0.57,1.44 -1.62,2.46 -1.05,1.02 -2.55,1.59 -1.53,0.54 -3.42,0.54 -1.8,0 -3.3,-0.45 -1.5,-0.48 -2.58,-1.38 -1.08,-0.9 -1.68,-2.19 -0.6,-1.32 -0.6,-3 0,-1.35 0.36,-2.37 0.36,-1.05 0.69,-1.56 z"
       style="font-style:normal;font-variant:normal;font-weight:normal;font-stretch:normal;font-size:30px;line-height:1.25;font-family:Ubuntu;-inkscape-font-specification:Ubuntu;text-align:center;letter-spacing:0px;word-spacing:0px;text-anchor:middle;fill:#000000;fill-opacity:1;stroke:none;stroke-width:1px;stroke-linecap:butt;stroke-linejoin:miter;stroke-opacity:1"
       id="path852" />
    <path
       d="m 701.85558,656.92605 q 1.86,0 3.36,0.54 1.5,0.54 2.58,1.53 1.08,0.96 1.68,2.31 0.57,1.35 0.57,2.94 0,1.59 -0.57,2.94 -0.6,1.35 -1.68,2.34 -1.08,0.96 -2.58,1.5 -1.5,0.54 -3.36,0.54 -1.83,0 -3.33,-0.54 -1.53,-0.54 -2.61,-1.5 -1.08,-0.99 -1.65,-2.34 -0.6,-1.35 -0.6,-2.94 0,-1.59 0.6,-2.94 0.57,-1.35 1.65,-2.31 1.08,-0.99 2.61,-1.53 1.5,-0.54 3.33,-0.54 z m 0,2.91 q -2.64,0 -4.17,1.2 -1.56,1.17 -1.56,3.21 0,2.04 1.56,3.24 1.53,1.17 4.17,1.17 2.64,0 4.2,-1.17 1.53,-1.2 1.53,-3.24 0,-2.04 -1.53,-3.21 -1.56,-1.2 -4.2,-1.2 z"
       style="font-style:normal;font-variant:normal;font-weight:normal;font-stretch:normal;font-size:30px;line-height:1.25;font-family:Ubuntu;-inkscape-font-specification:Ubuntu;text-align:center;letter-spacing:0px;word-spacing:0px;text-anchor:middle;fill:#000000;fill-opacity:1;stroke:none;stroke-width:1px;stroke-linecap:butt;stroke-linejoin:miter;stroke-opacity:1"
       id="path854" />
    <path
       d="m 709.65558,640.63612 q -2.16,0.84 -4.92,1.8 -2.79,0.93 -5.79,1.71 3,0.78 5.79,1.71 2.76,0.93 4.92,1.77 v 2.43 q -3.09,1.38 -7.05,2.7 -3.96,1.32 -8.55,2.49 v -3 q 1.41,-0.3 3.06,-0.72 1.65,-0.42 3.3,-0.87 1.65,-0.48 3.18,-0.99 1.53,-0.51 2.67,-0.96 -1.41,-0.51 -2.97,-0.99 -1.59,-0.51 -3.18,-0.96 -1.62,-0.45 -3.15,-0.84 -1.56,-0.42 -2.91,-0.72 v -2.31 q 1.35,-0.27 2.91,-0.66 1.53,-0.39 3.15,-0.84 1.59,-0.45 3.18,-0.93 1.56,-0.51 2.97,-1.02 -1.14,-0.45 -2.67,-0.93 -1.53,-0.51 -3.18,-0.99 -1.65,-0.48 -3.3,-0.9 -1.65,-0.42 -3.06,-0.72 v -2.88 q 4.59,1.17 8.55,2.49 3.96,1.32 7.05,2.7 z"
       style="font-style:normal;font-variant:normal;font-weight:normal;font-stretch:normal;font-size:30px;line-height:1.25;font-family:Ubuntu;-inkscape-font-specification:Ubuntu;text-align:center;letter-spacing:0px;word-spacing:0px;text-anchor:middle;fill:#000000;fill-opacity:1;stroke:none;stroke-width:1px;stroke-linecap:butt;stroke-linejoin:miter;stroke-opacity:1"
       id="path856" />
    <path
       d="m 694.50558,630.07616 q -0.24,-0.96 -0.51,-2.55 -0.27,-1.59 -0.27,-3.66 0,-1.86 0.54,-3.09 0.51,-1.23 1.47,-1.95 0.93,-0.75 2.25,-1.05 1.32,-0.3 2.91,-0.3 h 8.76 v 2.79 h -8.16 q -1.44,0 -2.46,0.21 -1.02,0.18 -1.65,0.63 -0.63,0.45 -0.9,1.2 -0.3,0.75 -0.3,1.86 0,0.45 0.03,0.93 0.03,0.48 0.09,0.93 0.03,0.42 0.09,0.78 0.06,0.33 0.09,0.48 h 13.17 v 2.79 z"
       style="font-style:normal;font-variant:normal;font-weight:normal;font-stretch:normal;font-size:30px;line-height:1.25;font-family:Ubuntu;-inkscape-font-specification:Ubuntu;text-align:center;letter-spacing:0px;word-spacing:0px;text-anchor:middle;fill:#000000;fill-opacity:1;stroke:none;stroke-width:1px;stroke-linecap:butt;stroke-linejoin:miter;stroke-opacity:1"
       id="path858" />
    <flowRoot
       style="fill:black;stroke:none;stroke-opacity:1;stroke-width:1px;stroke-linejoin:miter;stroke-linecap:butt;fill-opacity:1;font-family:Tofino;font-style:normal;font-weight:normal;font-size:42.66666667px;line-height:125%;letter-spacing:0px;word-spacing:0px;-inkscape-font-specification:Tofino;font-stretch:normal;font-variant:normal"
       id="flowRoot827"
       xml:space="preserve"><flowRegion
         id="flowRegion829"><rect
           y="684.28571"
           x="852.85712"
           height="200"
           width="170"
           id="rect831" /></flowRegion><flowPara
         id="flowPara833"></flowPara></flowRoot>  </g>
</svg>
