<?xml version="1.0" encoding="UTF-8" standalone="no"?>
<svg
   xmlns:dc="http://purl.org/dc/elements/1.1/"
   xmlns:cc="http://creativecommons.org/ns#"
   xmlns:rdf="http://www.w3.org/1999/02/22-rdf-syntax-ns#"
   xmlns:svg="http://www.w3.org/2000/svg"
   xmlns="http://www.w3.org/2000/svg"
   xmlns:xlink="http://www.w3.org/1999/xlink"
   version="1.1"
   id="svg2"
   viewBox="0 0 1052.3622 744.09448"
   height="210mm"
   width="297mm">
  <defs
     id="defs4" />
  <metadata
     id="metadata7">
    <rdf:RDF>
      <cc:Work
         rdf:about="">
        <dc:format>image/svg+xml</dc:format>
        <dc:type
           rdf:resource="http://purl.org/dc/dcmitype/StillImage" />
        <dc:title></dc:title>
      </cc:Work>
    </rdf:RDF>
  </metadata>
  <g
     transform="translate(0,-308.26772)"
     id="layer1">
    <rect
       y="308.26773"
       x="0"
       height="744.09448"
       width="1052.3622"
       id="rect1790"
       style="opacity:1;vector-effect:none;fill:#ffffff;fill-opacity:1;stroke:none;stroke-width:12.31299305;stroke-linecap:butt;stroke-linejoin:miter;stroke-miterlimit:4;stroke-dasharray:none;stroke-dashoffset:0;stroke-opacity:0.16666667" />
    <g
       style="stroke-width:1.09564066"
       transform="matrix(0.29245914,0,0,0.26233047,-5.280214,338.8794)"
       id="g848">
      <rect
         style="fill:#000000;fill-opacity:1;stroke:none;stroke-width:0.34704822;stroke-opacity:1"
         id="rect3336"
         width="80.266319"
         height="10"
         x="732.37427"
         y="-337.70657"
         transform="rotate(90)" />
      <path
         style="fill:#000000;fill-opacity:1;stroke:none;stroke-width:1.09564066;stroke-opacity:1"
         id="path3340-3"
         d="m -252.53814,413.94578 -48.50416,-24.52405 -48.50415,-24.52405 45.49053,-29.7438 45.49052,-29.74381 3.01363,54.26786 z"
         transform="matrix(0.01408636,-0.26878387,0.26878387,0.01408636,239.93988,731.13508)" />
    </g>
    <path
       d="m 80.560637,448.90716 q 0.903581,0 1.478587,-0.13691 0.602388,-0.16428 0.958344,-0.41072 0.355956,-0.27381 0.492862,-0.62976 0.136906,-0.35596 0.136906,-0.79406 0,-0.93096 -0.876199,-1.53335 -0.8762,-0.62977 -3.011937,-1.34168 -0.930962,-0.32857 -1.861924,-0.73929 -0.930962,-0.4381 -1.670256,-1.06787 -0.739293,-0.65715 -1.204774,-1.56073 -0.465482,-0.93096 -0.465482,-2.24526 0,-1.3143 0.492863,-2.35479 0.492862,-1.06787 1.396443,-1.80716 0.903581,-0.7393 2.190499,-1.12263 1.286919,-0.41072 2.902412,-0.41072 1.916687,0 3.31313,0.41072 1.396443,0.41071 2.300024,0.90358 l -1.232156,3.36789 q -0.794056,-0.41072 -1.77978,-0.71191 -0.958344,-0.32858 -2.327406,-0.32858 -1.533349,0 -2.21788,0.4381 -0.65715,0.41072 -0.65715,1.28692 0,0.52024 0.246431,0.8762 0.246431,0.35596 0.684531,0.65715 0.465481,0.27381 1.040487,0.52024 0.602388,0.21905 1.3143,0.46548 1.478587,0.54763 2.573836,1.09525 1.09525,0.52025 1.807162,1.23216 0.739294,0.71191 1.09525,1.67026 0.355956,0.95834 0.355956,2.3274 0,2.65598 -1.861924,4.13457 -1.861925,1.4512 -5.613155,1.4512 -1.259537,0 -2.272643,-0.16428 -1.013105,-0.13691 -1.807161,-0.35596 -0.766675,-0.21905 -1.341681,-0.46548 -0.547625,-0.24643 -0.930962,-0.46548 l 1.204774,-3.39527 q 0.848819,0.46548 2.080974,0.84881 1.259538,0.35596 3.066699,0.35596 z"
       style="font-style:normal;font-variant:normal;font-weight:bold;font-stretch:normal;font-size:27.38124084px;line-height:1.25;font-family:ubuntu;-inkscape-font-specification:'ubuntu Bold';letter-spacing:0px;word-spacing:0px;fill:#000000;fill-opacity:1;stroke:none;stroke-width:1px;stroke-linecap:butt;stroke-linejoin:miter;stroke-opacity:1"
       id="path1010" />
    <path
       d="m 90.910714,434.17605 4.079805,-0.65715 v 4.24409 h 4.901242 v 3.39528 h -4.901242 v 5.06553 q 0,1.28692 0.4381,2.05359 0.465481,0.76668 1.834543,0.76668 0.65715,0 1.341681,-0.10953 0.711912,-0.13691 1.286918,-0.35596 l 0.575009,3.17623 q -0.739296,0.30119 -1.642877,0.52024 -0.903581,0.21905 -2.21788,0.21905 -1.670256,0 -2.765506,-0.4381 -1.095249,-0.46548 -1.752399,-1.25953 -0.65715,-0.82144 -0.930962,-1.97145 -0.246432,-1.15002 -0.246432,-2.54646 z"
       style="font-style:normal;font-variant:normal;font-weight:bold;font-stretch:normal;font-size:27.38124084px;line-height:1.25;font-family:ubuntu;-inkscape-font-specification:'ubuntu Bold';letter-spacing:0px;word-spacing:0px;fill:#000000;fill-opacity:1;stroke:none;stroke-width:1px;stroke-linecap:butt;stroke-linejoin:miter;stroke-opacity:1"
       id="path1012" />
    <path
       d="m 108.16084,449.31788 q 0.60238,0 1.15001,-0.0274 0.54762,-0.0274 0.8762,-0.0822 v -3.09408 q -0.24643,-0.0548 -0.73929,-0.10952 -0.49287,-0.0548 -0.90359,-0.0548 -0.575,0 -1.09525,0.0821 -0.49286,0.0548 -0.8762,0.24643 -0.38333,0.19167 -0.60238,0.52024 -0.21905,0.32858 -0.21905,0.82144 0,0.95834 0.62977,1.34168 0.65715,0.35596 1.77978,0.35596 z m -0.32858,-11.93822 q 1.80716,0 3.01194,0.41072 1.20477,0.41071 1.91669,1.17739 0.73929,0.76667 1.04048,1.86192 0.3012,1.09525 0.3012,2.43693 v 8.48819 q -0.8762,0.19167 -2.43693,0.4381 -1.56074,0.27381 -3.77862,0.27381 -1.39644,0 -2.54645,-0.24643 -1.12263,-0.24643 -1.94407,-0.79406 -0.82144,-0.575 -1.25954,-1.47858 -0.4381,-0.90358 -0.4381,-2.21788 0,-1.25954 0.49287,-2.13574 0.52024,-0.8762 1.36906,-1.39644 0.84882,-0.52025 1.94407,-0.7393 1.09525,-0.24643 2.27264,-0.24643 0.79406,0 1.39644,0.0822 0.62977,0.0548 1.01311,0.16428 v -0.38333 q 0,-1.04049 -0.62977,-1.67026 -0.62977,-0.62977 -2.1905,-0.62977 -1.04049,0 -2.05359,0.16429 -1.01311,0.1369 -1.7524,0.41072 l -0.52025,-3.28575 q 0.35596,-0.10953 0.8762,-0.21905 0.54763,-0.13691 1.1774,-0.21905 0.62977,-0.10953 1.3143,-0.16429 0.71191,-0.0821 1.42382,-0.0821 z"
       style="font-style:normal;font-variant:normal;font-weight:bold;font-stretch:normal;font-size:27.38124084px;line-height:1.25;font-family:ubuntu;-inkscape-font-specification:'ubuntu Bold';letter-spacing:0px;word-spacing:0px;fill:#000000;fill-opacity:1;stroke:none;stroke-width:1px;stroke-linecap:butt;stroke-linejoin:miter;stroke-opacity:1"
       id="path1014" />
    <path
       d="m 126.47887,441.37732 q -0.54762,-0.13691 -1.28692,-0.27381 -0.73929,-0.16429 -1.58811,-0.16429 -0.38334,0 -0.93096,0.0821 -0.52024,0.0548 -0.79406,0.13691 v 11.00726 h -4.0798 v -13.63586 q 1.09525,-0.38334 2.57384,-0.71191 1.50596,-0.35596 3.34051,-0.35596 0.32857,0 0.79405,0.0548 0.46548,0.0274 0.93096,0.10953 0.46549,0.0548 0.93097,0.16429 0.46548,0.0821 0.79405,0.21905 z"
       style="font-style:normal;font-variant:normal;font-weight:bold;font-stretch:normal;font-size:27.38124084px;line-height:1.25;font-family:ubuntu;-inkscape-font-specification:'ubuntu Bold';letter-spacing:0px;word-spacing:0px;fill:#000000;fill-opacity:1;stroke:none;stroke-width:1px;stroke-linecap:butt;stroke-linejoin:miter;stroke-opacity:1"
       id="path1016" />
    <path
       d="m 129.21697,434.17605 4.0798,-0.65715 v 4.24409 h 4.90124 v 3.39528 h -4.90124 v 5.06553 q 0,1.28692 0.4381,2.05359 0.46548,0.76668 1.83455,0.76668 0.65715,0 1.34168,-0.10953 0.71191,-0.13691 1.28691,-0.35596 l 0.57501,3.17623 q -0.73929,0.30119 -1.64287,0.52024 -0.90358,0.21905 -2.21788,0.21905 -1.67026,0 -2.76551,-0.4381 -1.09525,-0.46548 -1.7524,-1.25953 -0.65715,-0.82144 -0.93096,-1.97145 -0.24643,-1.15002 -0.24643,-2.54646 z"
       style="font-style:normal;font-variant:normal;font-weight:bold;font-stretch:normal;font-size:27.38124084px;line-height:1.25;font-family:ubuntu;-inkscape-font-specification:'ubuntu Bold';letter-spacing:0px;word-spacing:0px;fill:#000000;fill-opacity:1;stroke:none;stroke-width:1px;stroke-linecap:butt;stroke-linejoin:miter;stroke-opacity:1"
       id="path1019" />
    <path
       d="m 153.80528,451.67267 q -1.04049,0.30119 -2.68336,0.54762 -1.64288,0.27381 -3.45004,0.27381 -1.83454,0 -3.0667,-0.49286 -1.20477,-0.49286 -1.91669,-1.36906 -0.71191,-0.90358 -1.0131,-2.13574 -0.3012,-1.23215 -0.3012,-2.71074 v -8.02271 h 4.07981 v 7.52985 q 0,1.97145 0.52024,2.84764 0.52025,0.8762 1.94407,0.8762 0.4381,0 0.93096,-0.0274 0.49287,-0.0548 0.8762,-0.10952 v -11.11679 h 4.07981 z"
       style="font-style:normal;font-variant:normal;font-weight:bold;font-stretch:normal;font-size:27.38124084px;line-height:1.25;font-family:ubuntu;-inkscape-font-specification:'ubuntu Bold';letter-spacing:0px;word-spacing:0px;fill:#000000;fill-opacity:1;stroke:none;stroke-width:1px;stroke-linecap:butt;stroke-linejoin:miter;stroke-opacity:1"
       id="path1021" />
    <path
       d="m 166.8661,445.07379 q 0,-1.88931 -0.84882,-3.01194 -0.84882,-1.15001 -2.51908,-1.15001 -0.54762,0 -1.0131,0.0548 -0.46548,0.0274 -0.76668,0.0821 v 7.36556 q 0.38334,0.24643 0.98573,0.41072 0.62977,0.16428 1.25953,0.16428 2.90242,0 2.90242,-3.91551 z m 4.16195,-0.10953 q 0,1.67026 -0.41072,3.03932 -0.41072,1.36906 -1.20478,2.35479 -0.79405,0.98572 -1.97145,1.53334 -1.17739,0.54763 -2.71074,0.54763 -0.84882,0 -1.58811,-0.16429 -0.7393,-0.16429 -1.42383,-0.46548 v 5.42149 h -4.0798 v -18.9752 q 0.54762,-0.16429 1.25954,-0.3012 0.71191,-0.16428 1.47858,-0.27381 0.79406,-0.10952 1.58811,-0.16429 0.82144,-0.0821 1.56074,-0.0821 1.77978,0 3.17622,0.54762 1.39644,0.52025 2.35479,1.50597 0.95834,0.95835 1.4512,2.35479 0.52025,1.39644 0.52025,3.12146 z"
       style="font-style:normal;font-variant:normal;font-weight:bold;font-stretch:normal;font-size:27.38124084px;line-height:1.25;font-family:ubuntu;-inkscape-font-specification:'ubuntu Bold';letter-spacing:0px;word-spacing:0px;fill:#000000;fill-opacity:1;stroke:none;stroke-width:1px;stroke-linecap:butt;stroke-linejoin:miter;stroke-opacity:1"
       id="path1023" />
    <path
       d="m 238.38186,378.39183 q 0.44,0.04 1,0.08 0.6,0 1.4,0 4.68,0 6.92,-2.36 2.28,-2.36 2.28,-6.52 0,-4.36 -2.16,-6.6 -2.16,-2.24 -6.84,-2.24 -0.64,0 -1.32,0.04 -0.68,0 -1.28,0.08 z m 18.04,-8.8 q 0,3.6 -1.12,6.28 -1.12,2.68 -3.2,4.44 -2.04,1.76 -5,2.64 -2.96,0.88 -6.64,0.88 -1.68,0 -3.92,-0.16 -2.24,-0.12 -4.4,-0.56 v -27 q 2.16,-0.4 4.48,-0.52 2.36,-0.16 4.04,-0.16 3.56,0 6.44,0.8 2.92,0.8 5,2.52 2.08,1.72 3.2,4.4 1.12,2.68 1.12,6.44 z"
       style="font-style:normal;font-variant:normal;font-weight:bold;font-stretch:normal;font-size:40px;line-height:1.25;font-family:ubuntu;-inkscape-font-specification:'ubuntu Bold';text-align:center;letter-spacing:0px;word-spacing:0px;text-anchor:middle;fill:#000000;fill-opacity:1;stroke:none;stroke-width:1px;stroke-linecap:butt;stroke-linejoin:miter;stroke-opacity:1"
       id="path956" />
    <path
       d="m 260.22184,373.11183 q 0,-2.8 0.84,-4.88 0.88,-2.12 2.28,-3.52 1.4,-1.4 3.2,-2.12 1.84,-0.72 3.76,-0.72 4.48,0 7.08,2.76 2.6,2.72 2.6,8.04 0,0.52 -0.04,1.16 -0.04,0.6 -0.08,1.08 h -13.52 q 0.2,1.84 1.72,2.92 1.52,1.08 4.08,1.08 1.64,0 3.2,-0.28 1.6,-0.32 2.6,-0.76 l 0.8,4.84 q -0.48,0.24 -1.28,0.48 -0.8,0.24 -1.8,0.4 -0.96,0.2 -2.08,0.32 -1.12,0.12 -2.24,0.12 -2.84,0 -4.96,-0.84 -2.08,-0.84 -3.48,-2.28 -1.36,-1.48 -2.04,-3.48 -0.64,-2 -0.64,-4.32 z m 14,-2.28 q -0.04,-0.76 -0.28,-1.48 -0.2,-0.72 -0.68,-1.28 -0.44,-0.56 -1.16,-0.92 -0.68,-0.36 -1.72,-0.36 -1,0 -1.72,0.36 -0.72,0.32 -1.2,0.88 -0.48,0.56 -0.76,1.32 -0.24,0.72 -0.36,1.48 z"
       style="font-style:normal;font-variant:normal;font-weight:bold;font-stretch:normal;font-size:40px;line-height:1.25;font-family:ubuntu;-inkscape-font-specification:'ubuntu Bold';text-align:center;letter-spacing:0px;word-spacing:0px;text-anchor:middle;fill:#000000;fill-opacity:1;stroke:none;stroke-width:1px;stroke-linecap:butt;stroke-linejoin:miter;stroke-opacity:1"
       id="path958" />
    <path
       d="m 298.06182,373.11183 q 0,-2.76 -1.24,-4.4 -1.24,-1.68 -3.68,-1.68 -0.8,0 -1.48,0.08 -0.68,0.04 -1.12,0.12 v 10.76 q 0.56,0.36 1.44,0.6 0.92,0.24 1.84,0.24 4.24,0 4.24,-5.72 z m 6.08,-0.16 q 0,2.44 -0.6,4.44 -0.6,2 -1.76,3.44 -1.16,1.44 -2.88,2.24 -1.72,0.8 -3.96,0.8 -1.24,0 -2.32,-0.24 -1.08,-0.24 -2.08,-0.68 v 7.92 h -5.96 v -27.72 q 0.8,-0.24 1.84,-0.44 1.04,-0.24 2.16,-0.4 1.16,-0.16 2.32,-0.24 1.2,-0.12 2.28,-0.12 2.6,0 4.64,0.8 2.04,0.76 3.44,2.2 1.4,1.4 2.12,3.44 0.76,2.04 0.76,4.56 z"
       style="font-style:normal;font-variant:normal;font-weight:bold;font-stretch:normal;font-size:40px;line-height:1.25;font-family:ubuntu;-inkscape-font-specification:'ubuntu Bold';text-align:center;letter-spacing:0px;word-spacing:0px;text-anchor:middle;fill:#000000;fill-opacity:1;stroke:none;stroke-width:1px;stroke-linecap:butt;stroke-linejoin:miter;stroke-opacity:1"
       id="path960" />
    <path
       d="m 307.74175,373.11183 q 0,-2.8 0.84,-4.88 0.88,-2.12 2.28,-3.52 1.4,-1.4 3.2,-2.12 1.84,-0.72 3.76,-0.72 4.48,0 7.08,2.76 2.6,2.72 2.6,8.04 0,0.52 -0.04,1.16 -0.04,0.6 -0.08,1.08 h -13.52 q 0.2,1.84 1.72,2.92 1.52,1.08 4.08,1.08 1.64,0 3.2,-0.28 1.6,-0.32 2.6,-0.76 l 0.8,4.84 q -0.48,0.24 -1.28,0.48 -0.8,0.24 -1.8,0.4 -0.96,0.2 -2.08,0.32 -1.12,0.12 -2.24,0.12 -2.84,0 -4.96,-0.84 -2.08,-0.84 -3.48,-2.28 -1.36,-1.48 -2.04,-3.48 -0.64,-2 -0.64,-4.32 z m 14,-2.28 q -0.04,-0.76 -0.28,-1.48 -0.2,-0.72 -0.68,-1.28 -0.44,-0.56 -1.16,-0.92 -0.68,-0.36 -1.72,-0.36 -1,0 -1.72,0.36 -0.72,0.32 -1.2,0.88 -0.48,0.56 -0.76,1.32 -0.24,0.72 -0.36,1.48 z"
       style="font-style:normal;font-variant:normal;font-weight:bold;font-stretch:normal;font-size:40px;line-height:1.25;font-family:ubuntu;-inkscape-font-specification:'ubuntu Bold';text-align:center;letter-spacing:0px;word-spacing:0px;text-anchor:middle;fill:#000000;fill-opacity:1;stroke:none;stroke-width:1px;stroke-linecap:butt;stroke-linejoin:miter;stroke-opacity:1"
       id="path962" />
    <path
       d="m 332.10173,363.15183 q 1.52,-0.44 3.92,-0.8 2.4,-0.4 5.04,-0.4 2.68,0 4.44,0.72 1.8,0.68 2.84,1.96 1.04,1.28 1.48,3.04 0.44,1.76 0.44,3.92 v 11.88 h -5.96 v -11.16 q 0,-2.88 -0.76,-4.08 -0.76,-1.2 -2.84,-1.2 -0.64,0 -1.36,0.08 -0.72,0.04 -1.28,0.12 v 16.24 h -5.96 z"
       style="font-style:normal;font-variant:normal;font-weight:bold;font-stretch:normal;font-size:40px;line-height:1.25;font-family:ubuntu;-inkscape-font-specification:'ubuntu Bold';text-align:center;letter-spacing:0px;word-spacing:0px;text-anchor:middle;fill:#000000;fill-opacity:1;stroke:none;stroke-width:1px;stroke-linecap:butt;stroke-linejoin:miter;stroke-opacity:1"
       id="path964" />
    <path
       d="m 360.74169,372.79183 q 0,2.76 1.24,4.44 1.24,1.68 3.68,1.68 0.8,0 1.48,-0.04 0.68,-0.08 1.12,-0.16 v -10.84 q -0.56,-0.36 -1.48,-0.6 -0.88,-0.24 -1.8,-0.24 -4.24,0 -4.24,5.76 z m 13.48,10 q -0.8,0.24 -1.84,0.48 -1.04,0.2 -2.2,0.36 -1.12,0.16 -2.32,0.24 -1.16,0.12 -2.24,0.12 -2.6,0 -4.64,-0.76 -2.04,-0.76 -3.44,-2.16 -1.4,-1.44 -2.16,-3.44 -0.72,-2.04 -0.72,-4.56 0,-2.56 0.64,-4.6 0.64,-2.08 1.84,-3.52 1.2,-1.44 2.92,-2.2 1.76,-0.76 4,-0.76 1.24,0 2.2,0.24 1,0.24 2,0.68 v -9.52 l 5.96,-0.96 z"
       style="font-style:normal;font-variant:normal;font-weight:bold;font-stretch:normal;font-size:40px;line-height:1.25;font-family:ubuntu;-inkscape-font-specification:'ubuntu Bold';text-align:center;letter-spacing:0px;word-spacing:0px;text-anchor:middle;fill:#000000;fill-opacity:1;stroke:none;stroke-width:1px;stroke-linecap:butt;stroke-linejoin:miter;stroke-opacity:1"
       id="path966" />
    <path
       d="m 378.82161,373.11183 q 0,-2.8 0.84,-4.88 0.88,-2.12 2.28,-3.52 1.4,-1.4 3.2,-2.12 1.84,-0.72 3.76,-0.72 4.48,0 7.08,2.76 2.6,2.72 2.6,8.04 0,0.52 -0.04,1.16 -0.04,0.6 -0.08,1.08 h -13.52 q 0.2,1.84 1.72,2.92 1.52,1.08 4.08,1.08 1.64,0 3.2,-0.28 1.6,-0.32 2.6,-0.76 l 0.8,4.84 q -0.48,0.24 -1.28,0.48 -0.8,0.24 -1.8,0.4 -0.96,0.2 -2.08,0.32 -1.12,0.12 -2.24,0.12 -2.84,0 -4.96,-0.84 -2.08,-0.84 -3.48,-2.28 -1.36,-1.48 -2.04,-3.48 -0.64,-2 -0.64,-4.32 z m 14,-2.28 q -0.04,-0.76 -0.28,-1.48 -0.2,-0.72 -0.68,-1.28 -0.44,-0.56 -1.16,-0.92 -0.68,-0.36 -1.72,-0.36 -1,0 -1.72,0.36 -0.72,0.32 -1.2,0.88 -0.48,0.56 -0.76,1.32 -0.24,0.72 -0.36,1.48 z"
       style="font-style:normal;font-variant:normal;font-weight:bold;font-stretch:normal;font-size:40px;line-height:1.25;font-family:ubuntu;-inkscape-font-specification:'ubuntu Bold';text-align:center;letter-spacing:0px;word-spacing:0px;text-anchor:middle;fill:#000000;fill-opacity:1;stroke:none;stroke-width:1px;stroke-linecap:butt;stroke-linejoin:miter;stroke-opacity:1"
       id="path968" />
    <path
       d="m 403.1816,363.15183 q 1.52,-0.44 3.92,-0.8 2.4,-0.4 5.04,-0.4 2.68,0 4.44,0.72 1.8,0.68 2.84,1.96 1.04,1.28 1.48,3.04 0.44,1.76 0.44,3.92 v 11.88 h -5.96 v -11.16 q 0,-2.88 -0.76,-4.08 -0.76,-1.2 -2.84,-1.2 -0.64,0 -1.36,0.08 -0.72,0.04 -1.28,0.12 v 16.24 h -5.96 z"
       style="font-style:normal;font-variant:normal;font-weight:bold;font-stretch:normal;font-size:40px;line-height:1.25;font-family:ubuntu;-inkscape-font-specification:'ubuntu Bold';text-align:center;letter-spacing:0px;word-spacing:0px;text-anchor:middle;fill:#000000;fill-opacity:1;stroke:none;stroke-width:1px;stroke-linecap:butt;stroke-linejoin:miter;stroke-opacity:1"
       id="path970" />
    <path
       d="m 425.74155,372.95183 q 0,-2.28 0.72,-4.28 0.76,-2.04 2.16,-3.52 1.4,-1.52 3.4,-2.4 2,-0.88 4.56,-0.88 1.68,0 3.08,0.32 1.4,0.28 2.72,0.84 l -1.24,4.76 q -0.84,-0.32 -1.84,-0.56 -1,-0.24 -2.24,-0.24 -2.64,0 -3.96,1.64 -1.28,1.64 -1.28,4.32 0,2.84 1.2,4.4 1.24,1.56 4.28,1.56 1.08,0 2.32,-0.2 1.24,-0.2 2.28,-0.64 l 0.84,4.88 q -1.04,0.44 -2.6,0.76 -1.56,0.32 -3.44,0.32 -2.88,0 -4.96,-0.84 -2.08,-0.88 -3.44,-2.36 -1.32,-1.48 -1.96,-3.48 -0.6,-2.04 -0.6,-4.4 z"
       style="font-style:normal;font-variant:normal;font-weight:bold;font-stretch:normal;font-size:40px;line-height:1.25;font-family:ubuntu;-inkscape-font-specification:'ubuntu Bold';text-align:center;letter-spacing:0px;word-spacing:0px;text-anchor:middle;fill:#000000;fill-opacity:1;stroke:none;stroke-width:1px;stroke-linecap:butt;stroke-linejoin:miter;stroke-opacity:1"
       id="path973" />
    <path
       d="m 452.70147,383.47183 h -5.96 v -21.04 h 5.96 z m 0.56,-27.12 q 0,1.64 -1.08,2.6 -1.04,0.92 -2.48,0.92 -1.44,0 -2.52,-0.92 -1.04,-0.96 -1.04,-2.6 0,-1.64 1.04,-2.56 1.08,-0.96 2.52,-0.96 1.44,0 2.48,0.96 1.08,0.92 1.08,2.56 z"
       style="font-style:normal;font-variant:normal;font-weight:bold;font-stretch:normal;font-size:40px;line-height:1.25;font-family:ubuntu;-inkscape-font-specification:'ubuntu Bold';text-align:center;letter-spacing:0px;word-spacing:0px;text-anchor:middle;fill:#000000;fill-opacity:1;stroke:none;stroke-width:1px;stroke-linecap:butt;stroke-linejoin:miter;stroke-opacity:1"
       id="path975" />
    <path
       d="m 457.30146,373.11183 q 0,-2.8 0.84,-4.88 0.88,-2.12 2.28,-3.52 1.4,-1.4 3.2,-2.12 1.84,-0.72 3.76,-0.72 4.48,0 7.08,2.76 2.6,2.72 2.6,8.04 0,0.52 -0.04,1.16 -0.04,0.6 -0.08,1.08 h -13.52 q 0.2,1.84 1.72,2.92 1.52,1.08 4.08,1.08 1.64,0 3.2,-0.28 1.6,-0.32 2.6,-0.76 l 0.8,4.84 q -0.48,0.24 -1.28,0.48 -0.8,0.24 -1.8,0.4 -0.96,0.2 -2.08,0.32 -1.12,0.12 -2.24,0.12 -2.84,0 -4.96,-0.84 -2.08,-0.84 -3.48,-2.28 -1.36,-1.48 -2.04,-3.48 -0.64,-2 -0.64,-4.32 z m 14,-2.28 q -0.04,-0.76 -0.28,-1.48 -0.2,-0.72 -0.68,-1.28 -0.44,-0.56 -1.16,-0.92 -0.68,-0.36 -1.72,-0.36 -1,0 -1.72,0.36 -0.72,0.32 -1.2,0.88 -0.48,0.56 -0.76,1.32 -0.24,0.72 -0.36,1.48 z"
       style="font-style:normal;font-variant:normal;font-weight:bold;font-stretch:normal;font-size:40px;line-height:1.25;font-family:ubuntu;-inkscape-font-specification:'ubuntu Bold';text-align:center;letter-spacing:0px;word-spacing:0px;text-anchor:middle;fill:#000000;fill-opacity:1;stroke:none;stroke-width:1px;stroke-linecap:butt;stroke-linejoin:miter;stroke-opacity:1"
       id="path977" />
    <path
       d="m 487.70144,379.19183 q 1.64,0 2.32,-0.32 0.68,-0.32 0.68,-1.24 0,-0.72 -0.88,-1.24 -0.88,-0.56 -2.68,-1.24 -1.4,-0.52 -2.56,-1.08 -1.12,-0.56 -1.92,-1.32 -0.8,-0.8 -1.24,-1.88 -0.44,-1.08 -0.44,-2.6 0,-2.96 2.2,-4.68 2.2,-1.72 6.04,-1.72 1.92,0 3.68,0.36 1.76,0.32 2.8,0.72 l -1.04,4.64 q -1.04,-0.36 -2.28,-0.64 -1.2,-0.28 -2.72,-0.28 -2.8,0 -2.8,1.56 0,0.36 0.12,0.64 0.12,0.28 0.48,0.56 0.36,0.24 0.96,0.56 0.64,0.28 1.6,0.64 1.96,0.72 3.24,1.44 1.28,0.68 2,1.52 0.76,0.8 1.04,1.8 0.32,1 0.32,2.32 0,3.12 -2.36,4.72 -2.32,1.6 -6.6,1.6 -2.8,0 -4.68,-0.48 -1.84,-0.48 -2.56,-0.8 l 1,-4.84 q 1.52,0.6 3.12,0.96 1.6,0.32 3.16,0.32 z"
       style="font-style:normal;font-variant:normal;font-weight:bold;font-stretch:normal;font-size:40px;line-height:1.25;font-family:ubuntu;-inkscape-font-specification:'ubuntu Bold';text-align:center;letter-spacing:0px;word-spacing:0px;text-anchor:middle;fill:#000000;fill-opacity:1;stroke:none;stroke-width:1px;stroke-linecap:butt;stroke-linejoin:miter;stroke-opacity:1"
       id="path979" />
    <path
       d="m 515.74138,372.27183 q 0,5 4.04,5 0.92,0 1.72,-0.24 0.8,-0.24 1.36,-0.56 v -9.52 q -0.44,-0.08 -1.04,-0.12 -0.6,-0.08 -1.4,-0.08 -2.36,0 -3.52,1.56 -1.16,1.56 -1.16,3.96 z m 13.08,8.56 q 0,5.16 -2.64,7.64 -2.6,2.52 -8.08,2.52 -1.92,0 -3.84,-0.36 -1.92,-0.32 -3.56,-0.88 l 1.04,-5 q 1.4,0.56 2.92,0.88 1.56,0.32 3.52,0.32 2.56,0 3.6,-1.12 1.08,-1.12 1.08,-2.88 v -0.76 q -0.96,0.44 -2,0.68 -1,0.2 -2.2,0.2 -4.36,0 -6.68,-2.56 -2.32,-2.6 -2.32,-7.24 0,-2.32 0.72,-4.2 0.72,-1.92 2.08,-3.28 1.4,-1.36 3.4,-2.08 2,-0.76 4.52,-0.76 1.08,0 2.2,0.12 1.16,0.08 2.28,0.24 1.12,0.16 2.12,0.4 1.04,0.2 1.84,0.44 z"
       style="font-style:normal;font-variant:normal;font-weight:bold;font-stretch:normal;font-size:40px;line-height:1.25;font-family:ubuntu;-inkscape-font-specification:'ubuntu Bold';text-align:center;letter-spacing:0px;word-spacing:0px;text-anchor:middle;fill:#000000;fill-opacity:1;stroke:none;stroke-width:1px;stroke-linecap:butt;stroke-linejoin:miter;stroke-opacity:1"
       id="path981" />
    <path
       d="m 547.10136,367.71183 q -0.8,-0.2 -1.88,-0.4 -1.08,-0.24 -2.32,-0.24 -0.56,0 -1.36,0.12 -0.76,0.08 -1.16,0.2 v 16.08 h -5.96 v -19.92 q 1.6,-0.56 3.76,-1.04 2.2,-0.52 4.88,-0.52 0.48,0 1.16,0.08 0.68,0.04 1.36,0.16 0.68,0.08 1.36,0.24 0.68,0.12 1.16,0.32 z"
       style="font-style:normal;font-variant:normal;font-weight:bold;font-stretch:normal;font-size:40px;line-height:1.25;font-family:ubuntu;-inkscape-font-specification:'ubuntu Bold';text-align:center;letter-spacing:0px;word-spacing:0px;text-anchor:middle;fill:#000000;fill-opacity:1;stroke:none;stroke-width:1px;stroke-linecap:butt;stroke-linejoin:miter;stroke-opacity:1"
       id="path983" />
    <path
       d="m 558.94134,379.31183 q 0.88,0 1.68,-0.04 0.8,-0.04 1.28,-0.12 v -4.52 q -0.36,-0.08 -1.08,-0.16 -0.72,-0.08 -1.32,-0.08 -0.84,0 -1.6,0.12 -0.72,0.08 -1.28,0.36 -0.56,0.28 -0.88,0.76 -0.32,0.48 -0.32,1.2 0,1.4 0.92,1.96 0.96,0.52 2.6,0.52 z m -0.48,-17.44 q 2.64,0 4.4,0.6 1.76,0.6 2.8,1.72 1.08,1.12 1.52,2.72 0.44,1.6 0.44,3.56 v 12.4 q -1.28,0.28 -3.56,0.64 -2.28,0.4 -5.52,0.4 -2.04,0 -3.72,-0.36 -1.64,-0.36 -2.84,-1.16 -1.2,-0.84 -1.84,-2.16 -0.64,-1.32 -0.64,-3.24 0,-1.84 0.72,-3.12 0.76,-1.28 2,-2.04 1.24,-0.76 2.84,-1.08 1.6,-0.36 3.32,-0.36 1.16,0 2.04,0.12 0.92,0.08 1.48,0.24 v -0.56 q 0,-1.52 -0.92,-2.44 -0.92,-0.92 -3.2,-0.92 -1.52,0 -3,0.24 -1.48,0.2 -2.56,0.6 l -0.76,-4.8 q 0.52,-0.16 1.28,-0.32 0.8,-0.2 1.72,-0.32 0.92,-0.16 1.92,-0.24 1.04,-0.12 2.08,-0.12 z"
       style="font-style:normal;font-variant:normal;font-weight:bold;font-stretch:normal;font-size:40px;line-height:1.25;font-family:ubuntu;-inkscape-font-specification:'ubuntu Bold';text-align:center;letter-spacing:0px;word-spacing:0px;text-anchor:middle;fill:#000000;fill-opacity:1;stroke:none;stroke-width:1px;stroke-linecap:butt;stroke-linejoin:miter;stroke-opacity:1"
       id="path985" />
    <path
       d="m 586.50131,373.11183 q 0,-2.76 -1.24,-4.4 -1.24,-1.68 -3.68,-1.68 -0.8,0 -1.48,0.08 -0.68,0.04 -1.12,0.12 v 10.76 q 0.56,0.36 1.44,0.6 0.92,0.24 1.84,0.24 4.24,0 4.24,-5.72 z m 6.08,-0.16 q 0,2.44 -0.6,4.44 -0.6,2 -1.76,3.44 -1.16,1.44 -2.88,2.24 -1.72,0.8 -3.96,0.8 -1.24,0 -2.32,-0.24 -1.08,-0.24 -2.08,-0.68 v 7.92 h -5.96 v -27.72 q 0.8,-0.24 1.84,-0.44 1.04,-0.24 2.16,-0.4 1.16,-0.16 2.32,-0.24 1.2,-0.12 2.28,-0.12 2.6,0 4.64,0.8 2.04,0.76 3.44,2.2 1.4,1.4 2.12,3.44 0.76,2.04 0.76,4.56 z"
       style="font-style:normal;font-variant:normal;font-weight:bold;font-stretch:normal;font-size:40px;line-height:1.25;font-family:ubuntu;-inkscape-font-specification:'ubuntu Bold';text-align:center;letter-spacing:0px;word-spacing:0px;text-anchor:middle;fill:#000000;fill-opacity:1;stroke:none;stroke-width:1px;stroke-linecap:butt;stroke-linejoin:miter;stroke-opacity:1"
       id="path987" />
    <path
       d="m 597.18125,383.47183 v -30.08 l 5.96,-0.96 v 10.08 q 0.6,-0.2 1.52,-0.36 0.96,-0.2 1.84,-0.2 2.56,0 4.24,0.72 1.72,0.68 2.72,1.96 1.04,1.28 1.44,3.04 0.44,1.76 0.44,3.92 v 11.88 h -5.96 v -11.16 q 0,-2.88 -0.76,-4.08 -0.72,-1.2 -2.72,-1.2 -0.8,0 -1.52,0.16 -0.68,0.12 -1.24,0.28 v 16 z"
       style="font-style:normal;font-variant:normal;font-weight:bold;font-stretch:normal;font-size:40px;line-height:1.25;font-family:ubuntu;-inkscape-font-specification:'ubuntu Bold';text-align:center;letter-spacing:0px;word-spacing:0px;text-anchor:middle;fill:#000000;fill-opacity:1;stroke:none;stroke-width:1px;stroke-linecap:butt;stroke-linejoin:miter;stroke-opacity:1"
       id="path989" />
    <path
       d="m 636.38116,379.19183 q 1.64,0 2.32,-0.32 0.68,-0.32 0.68,-1.24 0,-0.72 -0.88,-1.24 -0.88,-0.56 -2.68,-1.24 -1.4,-0.52 -2.56,-1.08 -1.12,-0.56 -1.92,-1.32 -0.8,-0.8 -1.24,-1.88 -0.44,-1.08 -0.44,-2.6 0,-2.96 2.2,-4.68 2.2,-1.72 6.04,-1.72 1.92,0 3.68,0.36 1.76,0.32 2.8,0.72 l -1.04,4.64 q -1.04,-0.36 -2.28,-0.64 -1.2,-0.28 -2.72,-0.28 -2.8,0 -2.8,1.56 0,0.36 0.12,0.64 0.12,0.28 0.48,0.56 0.36,0.24 0.96,0.56 0.64,0.28 1.6,0.64 1.96,0.72 3.24,1.44 1.28,0.68 2,1.52 0.76,0.8 1.04,1.8 0.32,1 0.32,2.32 0,3.12 -2.36,4.72 -2.32,1.6 -6.6,1.6 -2.8,0 -4.68,-0.48 -1.84,-0.48 -2.56,-0.8 l 1,-4.84 q 1.52,0.6 3.12,0.96 1.6,0.32 3.16,0.32 z"
       style="font-style:normal;font-variant:normal;font-weight:bold;font-stretch:normal;font-size:40px;line-height:1.25;font-family:ubuntu;-inkscape-font-specification:'ubuntu Bold';text-align:center;letter-spacing:0px;word-spacing:0px;text-anchor:middle;fill:#000000;fill-opacity:1;stroke:none;stroke-width:1px;stroke-linecap:butt;stroke-linejoin:miter;stroke-opacity:1"
       id="path991" />
    <path
       d="m 648.74112,373.11183 q 0,-2.8 0.84,-4.88 0.88,-2.12 2.28,-3.52 1.4,-1.4 3.2,-2.12 1.84,-0.72 3.76,-0.72 4.48,0 7.08,2.76 2.6,2.72 2.6,8.04 0,0.52 -0.04,1.16 -0.04,0.6 -0.08,1.08 h -13.52 q 0.2,1.84 1.72,2.92 1.52,1.08 4.08,1.08 1.64,0 3.2,-0.28 1.6,-0.32 2.6,-0.76 l 0.8,4.84 q -0.48,0.24 -1.28,0.48 -0.8,0.24 -1.8,0.4 -0.96,0.2 -2.08,0.32 -1.12,0.12 -2.24,0.12 -2.84,0 -4.96,-0.84 -2.08,-0.84 -3.48,-2.28 -1.36,-1.48 -2.04,-3.48 -0.64,-2 -0.64,-4.32 z m 14,-2.28 q -0.04,-0.76 -0.28,-1.48 -0.2,-0.72 -0.68,-1.28 -0.44,-0.56 -1.16,-0.92 -0.68,-0.36 -1.72,-0.36 -1,0 -1.72,0.36 -0.72,0.32 -1.2,0.88 -0.48,0.56 -0.76,1.32 -0.24,0.72 -0.36,1.48 z"
       style="font-style:normal;font-variant:normal;font-weight:bold;font-stretch:normal;font-size:40px;line-height:1.25;font-family:ubuntu;-inkscape-font-specification:'ubuntu Bold';text-align:center;letter-spacing:0px;word-spacing:0px;text-anchor:middle;fill:#000000;fill-opacity:1;stroke:none;stroke-width:1px;stroke-linecap:butt;stroke-linejoin:miter;stroke-opacity:1"
       id="path993" />
    <path
       d="m 678.18111,373.11183 q 0,5.72 4.24,5.72 0.92,0 1.8,-0.24 0.92,-0.24 1.48,-0.6 v -10.76 q -0.44,-0.08 -1.12,-0.12 -0.68,-0.08 -1.48,-0.08 -2.44,0 -3.68,1.68 -1.24,1.64 -1.24,4.4 z m -6.08,-0.16 q 0,-2.44 0.72,-4.44 0.76,-2.04 2.16,-3.48 1.4,-1.48 3.44,-2.28 2.04,-0.8 4.64,-0.8 1.08,0 2.24,0.12 1.2,0.08 2.32,0.24 1.16,0.16 2.2,0.4 1.04,0.2 1.84,0.44 v 27.72 h -5.96 v -7.92 q -1,0.44 -2.08,0.68 -1.08,0.24 -2.32,0.24 -4.48,0 -6.84,-2.92 -2.36,-2.96 -2.36,-8 z"
       style="font-style:normal;font-variant:normal;font-weight:bold;font-stretch:normal;font-size:40px;line-height:1.25;font-family:ubuntu;-inkscape-font-specification:'ubuntu Bold';text-align:center;letter-spacing:0px;word-spacing:0px;text-anchor:middle;fill:#000000;fill-opacity:1;stroke:none;stroke-width:1px;stroke-linecap:butt;stroke-linejoin:miter;stroke-opacity:1"
       id="path995" />
    <path
       d="m 715.22102,382.75183 q -1.52,0.44 -3.92,0.8 -2.4,0.4 -5.04,0.4 -2.68,0 -4.48,-0.72 -1.76,-0.72 -2.8,-2 -1.04,-1.32 -1.48,-3.12 -0.44,-1.8 -0.44,-3.96 v -11.72 h 5.96 v 11 q 0,2.88 0.76,4.16 0.76,1.28 2.84,1.28 0.64,0 1.36,-0.04 0.72,-0.08 1.28,-0.16 v -16.24 h 5.96 z"
       style="font-style:normal;font-variant:normal;font-weight:bold;font-stretch:normal;font-size:40px;line-height:1.25;font-family:ubuntu;-inkscape-font-specification:'ubuntu Bold';text-align:center;letter-spacing:0px;word-spacing:0px;text-anchor:middle;fill:#000000;fill-opacity:1;stroke:none;stroke-width:1px;stroke-linecap:butt;stroke-linejoin:miter;stroke-opacity:1"
       id="path997" />
    <path
       d="m 719.82099,373.11183 q 0,-2.8 0.84,-4.88 0.88,-2.12 2.28,-3.52 1.4,-1.4 3.2,-2.12 1.84,-0.72 3.76,-0.72 4.48,0 7.08,2.76 2.6,2.72 2.6,8.04 0,0.52 -0.04,1.16 -0.04,0.6 -0.08,1.08 h -13.52 q 0.2,1.84 1.72,2.92 1.52,1.08 4.08,1.08 1.64,0 3.2,-0.28 1.6,-0.32 2.6,-0.76 l 0.8,4.84 q -0.48,0.24 -1.28,0.48 -0.8,0.24 -1.8,0.4 -0.96,0.2 -2.08,0.32 -1.12,0.12 -2.24,0.12 -2.84,0 -4.96,-0.84 -2.08,-0.84 -3.48,-2.28 -1.36,-1.48 -2.04,-3.48 -0.64,-2 -0.64,-4.32 z m 14,-2.28 q -0.04,-0.76 -0.28,-1.48 -0.2,-0.72 -0.68,-1.28 -0.44,-0.56 -1.16,-0.92 -0.68,-0.36 -1.72,-0.36 -1,0 -1.72,0.36 -0.72,0.32 -1.2,0.88 -0.48,0.56 -0.76,1.32 -0.24,0.72 -0.36,1.48 z"
       style="font-style:normal;font-variant:normal;font-weight:bold;font-stretch:normal;font-size:40px;line-height:1.25;font-family:ubuntu;-inkscape-font-specification:'ubuntu Bold';text-align:center;letter-spacing:0px;word-spacing:0px;text-anchor:middle;fill:#000000;fill-opacity:1;stroke:none;stroke-width:1px;stroke-linecap:butt;stroke-linejoin:miter;stroke-opacity:1"
       id="path999" />
    <path
       d="m 744.18094,363.15183 q 1.52,-0.44 3.92,-0.8 2.4,-0.4 5.04,-0.4 2.68,0 4.44,0.72 1.8,0.68 2.84,1.96 1.04,1.28 1.48,3.04 0.44,1.76 0.44,3.92 v 11.88 h -5.96 v -11.16 q 0,-2.88 -0.76,-4.08 -0.76,-1.2 -2.84,-1.2 -0.64,0 -1.36,0.08 -0.72,0.04 -1.28,0.12 v 16.24 h -5.96 z"
       style="font-style:normal;font-variant:normal;font-weight:bold;font-stretch:normal;font-size:40px;line-height:1.25;font-family:ubuntu;-inkscape-font-specification:'ubuntu Bold';text-align:center;letter-spacing:0px;word-spacing:0px;text-anchor:middle;fill:#000000;fill-opacity:1;stroke:none;stroke-width:1px;stroke-linecap:butt;stroke-linejoin:miter;stroke-opacity:1"
       id="path1001" />
    <path
       d="m 766.74094,372.95183 q 0,-2.28 0.72,-4.28 0.76,-2.04 2.16,-3.52 1.4,-1.52 3.4,-2.4 2,-0.88 4.56,-0.88 1.68,0 3.08,0.32 1.4,0.28 2.72,0.84 l -1.24,4.76 q -0.84,-0.32 -1.84,-0.56 -1,-0.24 -2.24,-0.24 -2.64,0 -3.96,1.64 -1.28,1.64 -1.28,4.32 0,2.84 1.2,4.4 1.24,1.56 4.28,1.56 1.08,0 2.32,-0.2 1.24,-0.2 2.28,-0.64 l 0.84,4.88 q -1.04,0.44 -2.6,0.76 -1.56,0.32 -3.44,0.32 -2.88,0 -4.96,-0.84 -2.08,-0.88 -3.44,-2.36 -1.32,-1.48 -1.96,-3.48 -0.6,-2.04 -0.6,-4.4 z"
       style="font-style:normal;font-variant:normal;font-weight:bold;font-stretch:normal;font-size:40px;line-height:1.25;font-family:ubuntu;-inkscape-font-specification:'ubuntu Bold';text-align:center;letter-spacing:0px;word-spacing:0px;text-anchor:middle;fill:#000000;fill-opacity:1;stroke:none;stroke-width:1px;stroke-linecap:butt;stroke-linejoin:miter;stroke-opacity:1"
       id="path1003" />
    <path
       d="m 785.74076,373.11183 q 0,-2.8 0.84,-4.88 0.88,-2.12 2.28,-3.52 1.4,-1.4 3.2,-2.12 1.84,-0.72 3.76,-0.72 4.48,0 7.08,2.76 2.6,2.72 2.6,8.04 0,0.52 -0.04,1.16 -0.04,0.6 -0.08,1.08 h -13.52 q 0.2,1.84 1.72,2.92 1.52,1.08 4.08,1.08 1.64,0 3.2,-0.28 1.6,-0.32 2.6,-0.76 l 0.8,4.84 q -0.48,0.24 -1.28,0.48 -0.8,0.24 -1.8,0.4 -0.96,0.2 -2.08,0.32 -1.12,0.12 -2.24,0.12 -2.84,0 -4.96,-0.84 -2.08,-0.84 -3.48,-2.28 -1.36,-1.48 -2.04,-3.48 -0.64,-2 -0.64,-4.32 z m 14,-2.28 q -0.04,-0.76 -0.28,-1.48 -0.2,-0.72 -0.68,-1.28 -0.44,-0.56 -1.16,-0.92 -0.68,-0.36 -1.72,-0.36 -1,0 -1.72,0.36 -0.72,0.32 -1.2,0.88 -0.48,0.56 -0.76,1.32 -0.24,0.72 -0.36,1.48 z"
       style="font-style:normal;font-variant:normal;font-weight:bold;font-stretch:normal;font-size:40px;line-height:1.25;font-family:ubuntu;-inkscape-font-specification:'ubuntu Bold';text-align:center;letter-spacing:0px;word-spacing:0px;text-anchor:middle;fill:#000000;fill-opacity:1;stroke:none;stroke-width:1px;stroke-linecap:butt;stroke-linejoin:miter;stroke-opacity:1"
       id="path1005" />
    <path
       d="m 816.14074,379.19183 q 1.64,0 2.32,-0.32 0.68,-0.32 0.68,-1.24 0,-0.72 -0.88,-1.24 -0.88,-0.56 -2.68,-1.24 -1.4,-0.52 -2.56,-1.08 -1.12,-0.56 -1.92,-1.32 -0.8,-0.8 -1.24,-1.88 -0.44,-1.08 -0.44,-2.6 0,-2.96 2.2,-4.68 2.2,-1.72 6.04,-1.72 1.92,0 3.68,0.36 1.76,0.32 2.8,0.72 l -1.04,4.64 q -1.04,-0.36 -2.28,-0.64 -1.2,-0.28 -2.72,-0.28 -2.8,0 -2.8,1.56 0,0.36 0.12,0.64 0.12,0.28 0.48,0.56 0.36,0.24 0.96,0.56 0.64,0.28 1.6,0.64 1.96,0.72 3.24,1.44 1.28,0.68 2,1.52 0.76,0.8 1.04,1.8 0.32,1 0.32,2.32 0,3.12 -2.36,4.72 -2.32,1.6 -6.6,1.6 -2.8,0 -4.68,-0.48 -1.84,-0.48 -2.56,-0.8 l 1,-4.84 q 1.52,0.6 3.12,0.96 1.6,0.32 3.16,0.32 z"
       style="font-style:normal;font-variant:normal;font-weight:bold;font-stretch:normal;font-size:40px;line-height:1.25;font-family:ubuntu;-inkscape-font-specification:'ubuntu Bold';text-align:center;letter-spacing:0px;word-spacing:0px;text-anchor:middle;fill:#000000;fill-opacity:1;stroke:none;stroke-width:1px;stroke-linecap:butt;stroke-linejoin:miter;stroke-opacity:1"
       id="path1007" />
    <circle
       r="17.113276"
       cy="582.34326"
       cx="92.113274"
       id="circle852"
       style="opacity:1;fill:#000000;fill-opacity:1;stroke:none;stroke-width:0.29937989;stroke-opacity:1" />
    <circle
       r="17.113276"
       cy="659.35303"
       cx="143.45309"
       id="circle960"
       style="opacity:1;fill:#000000;fill-opacity:1;stroke:none;stroke-width:0.29937989;stroke-opacity:1" />
    <circle
       style="opacity:1;fill:#000000;fill-opacity:1;stroke:none;stroke-width:0.29937989;stroke-opacity:1"
       id="use868"
       cx="92.113274"
       cy="505.33356"
       r="17.113276" />
    <path
       d="m 80.560637,740.94171 q 0.903581,0 1.478587,-0.13691 0.602388,-0.16429 0.958344,-0.41072 0.355956,-0.27381 0.492862,-0.62977 0.136906,-0.35595 0.136906,-0.79405 0,-0.93097 -0.876199,-1.53335 -0.8762,-0.62977 -3.011937,-1.34168 -0.930962,-0.32858 -1.861924,-0.7393 -0.930962,-0.4381 -1.670256,-1.06787 -0.739293,-0.65715 -1.204774,-1.56073 -0.465482,-0.93096 -0.465482,-2.24526 0,-1.3143 0.492863,-2.35479 0.492862,-1.06786 1.396443,-1.80716 0.903581,-0.73929 2.190499,-1.12263 1.286919,-0.41072 2.902412,-0.41072 1.916687,0 3.31313,0.41072 1.396443,0.41072 2.300024,0.90358 l -1.232156,3.3679 q -0.794056,-0.41072 -1.77978,-0.71192 -0.958344,-0.32857 -2.327406,-0.32857 -1.533349,0 -2.21788,0.4381 -0.65715,0.41072 -0.65715,1.28692 0,0.52024 0.246431,0.8762 0.246431,0.35595 0.684531,0.65715 0.465481,0.27381 1.040487,0.52024 0.602388,0.21905 1.3143,0.46548 1.478587,0.54763 2.573836,1.09525 1.09525,0.52024 1.807162,1.23216 0.739294,0.71191 1.09525,1.67025 0.355956,0.95835 0.355956,2.32741 0,2.65598 -1.861924,4.13456 -1.861925,1.45121 -5.613155,1.45121 -1.259537,0 -2.272643,-0.16429 -1.013105,-0.1369 -1.807161,-0.35595 -0.766675,-0.21905 -1.341681,-0.46548 -0.547625,-0.24644 -0.930962,-0.46549 l 1.204774,-3.39527 q 0.848819,0.46548 2.080974,0.84882 1.259538,0.35596 3.066699,0.35596 z"
       style="font-style:normal;font-variant:normal;font-weight:bold;font-stretch:normal;font-size:27.38124084px;line-height:1.25;font-family:ubuntu;-inkscape-font-specification:'ubuntu Bold';letter-spacing:0px;word-spacing:0px;fill:#000000;fill-opacity:1;stroke:none;stroke-width:1px;stroke-linecap:butt;stroke-linejoin:miter;stroke-opacity:1"
       id="path1026" />
    <path
       d="m 91.047621,744.20007 v -20.59069 l 4.079805,-0.65715 v 6.90007 q 0.410718,-0.1369 1.040487,-0.24643 0.657149,-0.1369 1.259537,-0.1369 1.752399,0 2.90241,0.49286 1.17739,0.46548 1.86193,1.34168 0.71191,0.8762 0.98572,2.08097 0.30119,1.20478 0.30119,2.68336 v 8.13223 h -4.079801 v -7.63936 q 0,-1.97145 -0.520243,-2.79289 -0.492863,-0.82144 -1.861925,-0.82144 -0.547625,0 -1.040487,0.10953 -0.465481,0.0821 -0.848818,0.19167 v 10.95249 z"
       style="font-style:normal;font-variant:normal;font-weight:bold;font-stretch:normal;font-size:27.38124084px;line-height:1.25;font-family:ubuntu;-inkscape-font-specification:'ubuntu Bold';letter-spacing:0px;word-spacing:0px;fill:#000000;fill-opacity:1;stroke:none;stroke-width:1px;stroke-linecap:butt;stroke-linejoin:miter;stroke-opacity:1"
       id="path1028" />
    <path
       d="m 119.46932,743.70721 q -1.04049,0.30119 -2.68336,0.54763 -1.64288,0.27381 -3.45004,0.27381 -1.83454,0 -3.0667,-0.49286 -1.20477,-0.49287 -1.91669,-1.36907 -0.71191,-0.90358 -1.0131,-2.13573 -0.3012,-1.23216 -0.3012,-2.71075 v -8.0227 h 4.07981 v 7.52984 q 0,1.97145 0.52024,2.84765 0.52025,0.8762 1.94407,0.8762 0.4381,0 0.93096,-0.0274 0.49287,-0.0548 0.8762,-0.10953 v -11.11678 h 4.07981 z"
       style="font-style:normal;font-variant:normal;font-weight:bold;font-stretch:normal;font-size:27.38124084px;line-height:1.25;font-family:ubuntu;-inkscape-font-specification:'ubuntu Bold';letter-spacing:0px;word-spacing:0px;fill:#000000;fill-opacity:1;stroke:none;stroke-width:1px;stroke-linecap:butt;stroke-linejoin:miter;stroke-opacity:1"
       id="path1030" />
    <path
       d="m 123.16575,726.2106 4.07981,-0.65715 v 4.24409 h 4.90124 v 3.39527 h -4.90124 v 5.06553 q 0,1.28692 0.4381,2.0536 0.46548,0.76667 1.83454,0.76667 0.65715,0 1.34168,-0.10952 0.71191,-0.13691 1.28692,-0.35596 l 0.575,3.17622 q -0.73929,0.3012 -1.64287,0.52025 -0.90358,0.21905 -2.21788,0.21905 -1.67026,0 -2.76551,-0.4381 -1.09525,-0.46548 -1.75239,-1.25954 -0.65715,-0.82144 -0.93097,-1.97145 -0.24643,-1.15001 -0.24643,-2.54645 z"
       style="font-style:normal;font-variant:normal;font-weight:bold;font-stretch:normal;font-size:27.38124084px;line-height:1.25;font-family:ubuntu;-inkscape-font-specification:'ubuntu Bold';letter-spacing:0px;word-spacing:0px;fill:#000000;fill-opacity:1;stroke:none;stroke-width:1px;stroke-linecap:butt;stroke-linejoin:miter;stroke-opacity:1"
       id="path1032" />
    <path
       d="m 138.38966,736.88928 q 0,1.88931 0.84882,3.03932 0.84882,1.15001 2.51907,1.15001 0.54763,0 1.01311,-0.0274 0.46548,-0.0548 0.76667,-0.10952 v -7.42032 q -0.38333,-0.24643 -1.0131,-0.41072 -0.60239,-0.16429 -1.23216,-0.16429 -2.90241,0 -2.90241,3.9429 z m 9.22748,6.84531 q -0.54763,0.16429 -1.25954,0.32858 -0.71191,0.1369 -1.50597,0.24643 -0.76667,0.10952 -1.58811,0.16429 -0.79405,0.0821 -1.53335,0.0821 -1.77978,0 -3.17622,-0.52024 -1.39645,-0.52025 -2.35479,-1.47859 -0.95834,-0.98573 -1.47859,-2.35479 -0.49286,-1.39644 -0.49286,-3.12146 0,-1.7524 0.4381,-3.14884 0.4381,-1.42383 1.25954,-2.40955 0.82144,-0.98573 1.99883,-1.50597 1.20477,-0.52024 2.73812,-0.52024 0.84882,0 1.50597,0.16428 0.68453,0.16429 1.36906,0.46549 v -6.51674 l 4.07981,-0.65715 z"
       style="font-style:normal;font-variant:normal;font-weight:bold;font-stretch:normal;font-size:27.38124084px;line-height:1.25;font-family:ubuntu;-inkscape-font-specification:'ubuntu Bold';letter-spacing:0px;word-spacing:0px;fill:#000000;fill-opacity:1;stroke:none;stroke-width:1px;stroke-linecap:butt;stroke-linejoin:miter;stroke-opacity:1"
       id="path1034" />
    <path
       d="m 164.92203,736.97143 q 0,1.69763 -0.49286,3.12146 -0.49286,1.39644 -1.42382,2.40955 -0.93097,0.98572 -2.24527,1.53335 -1.28691,0.54762 -2.90241,0.54762 -1.58811,0 -2.90241,-0.54762 -1.28692,-0.54763 -2.21788,-1.53335 -0.93096,-1.01311 -1.45121,-2.40955 -0.52024,-1.42383 -0.52024,-3.12146 0,-1.69764 0.52024,-3.09408 0.54763,-1.39645 1.47859,-2.38217 0.95835,-0.98573 2.24526,-1.53335 1.3143,-0.54763 2.84765,-0.54763 1.56073,0 2.84765,0.54763 1.3143,0.54762 2.24526,1.53335 0.93097,0.98572 1.45121,2.38217 0.52024,1.39644 0.52024,3.09408 z m -4.16195,0 q 0,-1.88931 -0.76667,-2.95718 -0.73929,-1.09525 -2.13574,-1.09525 -1.39644,0 -2.16312,1.09525 -0.76667,1.06787 -0.76667,2.95718 0,1.8893 0.76667,3.01193 0.76668,1.09525 2.16312,1.09525 1.39645,0 2.13574,-1.09525 0.76667,-1.12263 0.76667,-3.01193 z"
       style="font-style:normal;font-variant:normal;font-weight:bold;font-stretch:normal;font-size:27.38124084px;line-height:1.25;font-family:ubuntu;-inkscape-font-specification:'ubuntu Bold';letter-spacing:0px;word-spacing:0px;fill:#000000;fill-opacity:1;stroke:none;stroke-width:1px;stroke-linecap:butt;stroke-linejoin:miter;stroke-opacity:1"
       id="path1036" />
    <path
       d="m 176.50423,735.93094 q -0.54762,2.08097 -1.17739,4.13457 -0.60239,2.05359 -1.28692,4.13456 h -3.17623 q -0.49286,-1.15001 -1.06786,-2.73812 -0.57501,-1.58811 -1.20478,-3.45004 -0.60239,-1.8893 -1.25954,-3.97028 -0.62976,-2.10835 -1.23215,-4.24409 h 4.29885 q 0.21905,0.98573 0.46548,2.16312 0.27382,1.15001 0.54763,2.38217 0.30119,1.23215 0.60239,2.49169 0.32857,1.23216 0.65715,2.38217 0.35595,-1.20478 0.68453,-2.46431 0.35595,-1.25954 0.65715,-2.46432 0.32857,-1.23215 0.60238,-2.35478 0.3012,-1.15001 0.52025,-2.13574 h 2.95717 q 0.21905,0.98573 0.49286,2.13574 0.27382,1.12263 0.57501,2.35478 0.30119,1.20478 0.62977,2.46432 0.32857,1.25953 0.68453,2.46431 0.32858,-1.15001 0.65715,-2.38217 0.32857,-1.25954 0.60239,-2.49169 0.30119,-1.23216 0.54762,-2.38217 0.27381,-1.17739 0.49286,-2.16312 h 4.2441 q -0.60239,2.13574 -1.25954,4.24409 -0.62977,2.08098 -1.25954,3.97028 -0.60238,1.86193 -1.20477,3.45004 -0.57501,1.58811 -1.06787,2.73812 h -3.17622 q -0.68454,-2.08097 -1.34169,-4.13456 -0.65714,-2.0536 -1.20477,-4.13457 z"
       style="font-style:normal;font-variant:normal;font-weight:bold;font-stretch:normal;font-size:27.38124084px;line-height:1.25;font-family:ubuntu;-inkscape-font-specification:'ubuntu Bold';letter-spacing:0px;word-spacing:0px;fill:#000000;fill-opacity:1;stroke:none;stroke-width:1px;stroke-linecap:butt;stroke-linejoin:miter;stroke-opacity:1"
       id="path1038" />
    <path
       d="m 189.20908,730.2904 q 1.04049,-0.30119 2.68337,-0.54762 1.64287,-0.27381 3.45003,-0.27381 1.83454,0 3.03932,0.49286 1.23215,0.46548 1.94407,1.34168 0.71191,0.8762 1.0131,2.08097 0.3012,1.20478 0.3012,2.68336 v 8.13223 h -4.07981 v -7.63936 q 0,-1.97145 -0.52024,-2.79289 -0.52025,-0.82144 -1.94407,-0.82144 -0.4381,0 -0.93096,0.0548 -0.49286,0.0274 -0.8762,0.0821 v 11.11678 h -4.07981 z"
       style="font-style:normal;font-variant:normal;font-weight:bold;font-stretch:normal;font-size:27.38124084px;line-height:1.25;font-family:ubuntu;-inkscape-font-specification:'ubuntu Bold';letter-spacing:0px;word-spacing:0px;fill:#000000;fill-opacity:1;stroke:none;stroke-width:1px;stroke-linecap:butt;stroke-linejoin:miter;stroke-opacity:1"
       id="path1041" />
    <g
       style="stroke-width:1.09564066"
       id="g904"
       transform="matrix(0.29245914,0,0,0.26233047,46.059612,415.88914)">
      <rect
         transform="rotate(90)"
         y="-337.70657"
         x="438.81424"
         height="10"
         width="373.82632"
         id="rect900"
         style="fill:#000000;fill-opacity:1;stroke:none;stroke-width:0.74895906;stroke-opacity:1" />
      <path
         transform="matrix(0.01408636,-0.26878387,0.26878387,0.01408636,239.93988,731.13508)"
         d="m -252.53814,413.94578 -48.50416,-24.52405 -48.50415,-24.52405 45.49053,-29.7438 45.49052,-29.74381 3.01363,54.26786 z"
         id="path902"
         style="fill:#000000;fill-opacity:1;stroke:none;stroke-width:1.09564066;stroke-opacity:1" />
    </g>
    <use
       style="stroke-width:1.09564066"
       height="100%"
       width="100%"
       transform="translate(102.67965,77.009739)"
       id="use906"
       xlink:href="#g848"
       y="0"
       x="0" />
    <use
       style="stroke-width:1.09564066"
       x="0"
       y="0"
       xlink:href="#g848"
       id="use918"
       transform="matrix(0.77394577,-0.63977368,0.61915661,0.79971711,-293.7331,245.30914)"
       width="100%"
       height="100%" />
    <use
       style="stroke-width:1.09564066"
       height="100%"
       width="100%"
       transform="translate(102.67965)"
       id="use920"
       xlink:href="#g848"
       y="0"
       x="0" />
    <use
       style="stroke-width:1.09564066"
       height="100%"
       width="100%"
       transform="matrix(-1,0,0,1,283.84737,0)"
       id="use922"
       xlink:href="#use918"
       y="0"
       x="0" />
    <circle
       style="opacity:1;fill:#000000;fill-opacity:1;stroke:none;stroke-width:0.29937989;stroke-opacity:1"
       id="circle962"
       cx="194.79292"
       cy="659.35303"
       r="17.113276" />
    <circle
       r="17.113276"
       cy="505.33356"
       cx="143.45309"
       id="circle964"
       style="opacity:1;fill:#000000;fill-opacity:1;stroke:none;stroke-width:0.29937989;stroke-opacity:1" />
    <circle
       style="opacity:1;fill:#000000;fill-opacity:1;stroke:none;stroke-width:0.29937989;stroke-opacity:1"
       id="circle966"
       cx="194.79292"
       cy="505.33356"
       r="17.113276" />
    <circle
       r="17.113276"
       cy="582.34326"
       cx="194.79292"
       id="circle968"
       style="opacity:1;fill:#000000;fill-opacity:1;stroke:none;stroke-width:0.29937989;stroke-opacity:1" />
    <g
       style="stroke-width:1.09564066"
       id="g974"
       transform="matrix(0.29245914,0,0,0.26233047,242.86227,338.8794)">
      <rect
         transform="rotate(90)"
         y="-337.70657"
         x="732.37427"
         height="10"
         width="80.266319"
         id="rect970"
         style="fill:#000000;fill-opacity:1;stroke:none;stroke-width:0.34704822;stroke-opacity:1" />
      <path
         transform="matrix(0.01408636,-0.26878387,0.26878387,0.01408636,239.93988,731.13508)"
         d="m -252.53814,413.94578 -48.50416,-24.52405 -48.50415,-24.52405 45.49053,-29.7438 45.49052,-29.74381 3.01363,54.26786 z"
         id="path972"
         style="fill:#000000;fill-opacity:1;stroke:none;stroke-width:1.09564066;stroke-opacity:1" />
    </g>
    <circle
       style="opacity:1;fill:#000000;fill-opacity:1;stroke:none;stroke-width:0.29937989;stroke-opacity:1"
       id="circle976"
       cx="340.25577"
       cy="582.34326"
       r="17.113276" />
    <circle
       style="opacity:1;fill:#008500;fill-opacity:1;stroke:none;stroke-width:0.29937989;stroke-opacity:1"
       id="circle978"
       cx="391.59558"
       cy="659.35303"
       r="17.113276" />
    <circle
       r="17.113276"
       cy="505.33356"
       cx="340.25577"
       id="circle980"
       style="opacity:1;fill:#000000;fill-opacity:1;stroke:none;stroke-width:0.29937989;stroke-opacity:1" />
    <g
       style="stroke-width:1.09564066"
       transform="matrix(0.29245914,0,0,0.26233047,294.2021,415.88914)"
       id="g986">
      <rect
         style="fill:#000000;fill-opacity:1;stroke:none;stroke-width:0.74895906;stroke-opacity:1"
         id="rect982"
         width="373.82632"
         height="10"
         x="438.81424"
         y="-337.70657"
         transform="rotate(90)" />
      <path
         style="fill:#000000;fill-opacity:1;stroke:none;stroke-width:1.09564066;stroke-opacity:1"
         id="path984"
         d="m -252.53814,413.94578 -48.50416,-24.52405 -48.50415,-24.52405 45.49053,-29.7438 45.49052,-29.74381 3.01363,54.26786 z"
         transform="matrix(0.01408636,-0.26878387,0.26878387,0.01408636,239.93988,731.13508)" />
    </g>
    <use
       style="stroke-width:1.09564066"
       x="0"
       y="0"
       xlink:href="#g848"
       id="use988"
       transform="translate(350.82214,77.009739)"
       width="100%"
       height="100%" />
    <use
       style="stroke-width:1.09564066"
       height="100%"
       width="100%"
       transform="matrix(0.77394577,-0.63977368,0.61915661,0.79971711,-45.590642,245.30914)"
       id="use990"
       xlink:href="#g848"
       y="0"
       x="0" />
    <use
       style="stroke-width:1.09564066"
       x="0"
       y="0"
       xlink:href="#g848"
       id="use992"
       transform="translate(350.82214)"
       width="100%"
       height="100%" />
    <use
       style="stroke-width:1.09564066"
       x="0"
       y="0"
       xlink:href="#use918"
       id="use994"
       transform="matrix(-1,0,0,1,531.98986,0)"
       width="100%"
       height="100%" />
    <circle
       r="17.113276"
       cy="659.35303"
       cx="442.93542"
       id="circle996"
       style="opacity:1;fill:#008500;fill-opacity:1;stroke:none;stroke-width:0.29937989;stroke-opacity:1" />
    <circle
       style="opacity:1;fill:#000000;fill-opacity:1;stroke:none;stroke-width:0.29937989;stroke-opacity:1"
       id="circle998"
       cx="391.59558"
       cy="505.33356"
       r="17.113276" />
    <circle
       r="17.113276"
       cy="505.33356"
       cx="442.93542"
       id="circle1000"
       style="opacity:1;fill:#000000;fill-opacity:1;stroke:none;stroke-width:0.29937989;stroke-opacity:1" />
    <circle
       style="opacity:1;fill:#000000;fill-opacity:1;stroke:none;stroke-width:0.29937989;stroke-opacity:1"
       id="circle1002"
       cx="442.93542"
       cy="582.34326"
       r="17.113276" />
    <g
       style="stroke-width:1.09564066"
       transform="matrix(0.29245914,0,0,0.26233047,242.86227,626.38242)"
       id="g1008">
      <rect
         style="fill:#000000;fill-opacity:1;stroke:none;stroke-width:0.34704822;stroke-opacity:1"
         id="rect1004"
         width="80.266319"
         height="10"
         x="732.37427"
         y="-337.70657"
         transform="rotate(90)" />
      <path
         style="fill:#000000;fill-opacity:1;stroke:none;stroke-width:1.09564066;stroke-opacity:1"
         id="path1006"
         d="m -252.53814,413.94578 -48.50416,-24.52405 -48.50415,-24.52405 45.49053,-29.7438 45.49052,-29.74381 3.01363,54.26786 z"
         transform="matrix(0.01408636,-0.26878387,0.26878387,0.01408636,239.93988,731.13508)" />
    </g>
    <circle
       r="17.113276"
       cy="869.84631"
       cx="340.25577"
       id="circle1010"
       style="opacity:1;fill:#000000;fill-opacity:1;stroke:none;stroke-width:0.29937989;stroke-opacity:1" />
    <circle
       r="17.113276"
       cy="946.85608"
       cx="391.59558"
       id="circle1012"
       style="opacity:1;fill:#000000;fill-opacity:1;stroke:none;stroke-width:0.29937989;stroke-opacity:1" />
    <circle
       style="opacity:1;fill:#920000;fill-opacity:1;stroke:none;stroke-width:0.29937989;stroke-opacity:1"
       id="circle1014"
       cx="340.25577"
       cy="792.83655"
       r="17.113276" />
    <g
       style="stroke-width:1.09564066"
       id="g1020"
       transform="matrix(0.29245914,0,0,0.26233047,294.2021,703.39216)">
      <rect
         transform="rotate(90)"
         y="-337.70657"
         x="438.81424"
         height="10"
         width="373.82632"
         id="rect1016"
         style="fill:#000000;fill-opacity:1;stroke:none;stroke-width:0.74895906;stroke-opacity:1" />
      <path
         transform="matrix(0.01408636,-0.26878387,0.26878387,0.01408636,239.93988,731.13508)"
         d="m -252.53814,413.94578 -48.50416,-24.52405 -48.50415,-24.52405 45.49053,-29.7438 45.49052,-29.74381 3.01363,54.26786 z"
         id="path1018"
         style="fill:#000000;fill-opacity:1;stroke:none;stroke-width:1.09564066;stroke-opacity:1" />
    </g>
    <use
       style="stroke-width:1.09564066"
       height="100%"
       width="100%"
       transform="translate(350.82214,364.51276)"
       id="use1022"
       xlink:href="#g848"
       y="0"
       x="0" />
    <use
       style="stroke-width:1.09564066"
       x="0"
       y="0"
       xlink:href="#g848"
       id="use1024"
       transform="matrix(0.77394577,-0.63977368,0.61915661,0.79971711,-45.590642,532.81217)"
       width="100%"
       height="100%" />
    <use
       style="stroke-width:1.09564066"
       height="100%"
       width="100%"
       transform="translate(350.82214,287.50303)"
       id="use1026"
       xlink:href="#g848"
       y="0"
       x="0" />
    <use
       style="stroke-width:1.09564066"
       height="100%"
       width="100%"
       transform="matrix(-1,0,0,1,531.98986,287.50303)"
       id="use1028"
       xlink:href="#use918"
       y="0"
       x="0" />
    <circle
       style="opacity:1;fill:#000000;fill-opacity:1;stroke:none;stroke-width:0.29937989;stroke-opacity:1"
       id="circle1030"
       cx="442.93542"
       cy="946.85608"
       r="17.113276" />
    <circle
       r="17.113276"
       cy="792.83655"
       cx="391.59558"
       id="circle1032"
       style="opacity:1;fill:#920000;fill-opacity:1;stroke:none;stroke-width:0.29937989;stroke-opacity:1" />
    <circle
       style="opacity:1;fill:#920000;fill-opacity:1;stroke:none;stroke-width:0.29937989;stroke-opacity:1"
       id="circle1034"
       cx="442.93542"
       cy="792.83655"
       r="17.113276" />
    <circle
       r="17.113276"
       cy="869.84631"
       cx="442.93542"
       id="circle1036"
       style="opacity:1;fill:#000000;fill-opacity:1;stroke:none;stroke-width:0.29937989;stroke-opacity:1" />
    <g
       style="stroke-width:1.09564066"
       id="g1042"
       transform="matrix(0.29245914,0,0,0.26233047,-5.280218,626.38242)">
      <rect
         transform="rotate(90)"
         y="-337.70657"
         x="732.37427"
         height="10"
         width="80.266319"
         id="rect1038"
         style="fill:#000000;fill-opacity:1;stroke:none;stroke-width:0.34704822;stroke-opacity:1" />
      <path
         transform="matrix(0.01408636,-0.26878387,0.26878387,0.01408636,239.93988,731.13508)"
         d="m -252.53814,413.94578 -48.50416,-24.52405 -48.50415,-24.52405 45.49053,-29.7438 45.49052,-29.74381 3.01363,54.26786 z"
         id="path1040"
         style="fill:#000000;fill-opacity:1;stroke:none;stroke-width:1.09564066;stroke-opacity:1" />
    </g>
    <circle
       style="opacity:1;fill:#000000;fill-opacity:1;stroke:none;stroke-width:0.29937989;stroke-opacity:1"
       id="circle1044"
       cx="92.113274"
       cy="869.84631"
       r="17.113276" />
    <circle
       style="opacity:1;fill:#000000;fill-opacity:1;stroke:none;stroke-width:0.29937989;stroke-opacity:1"
       id="circle1046"
       cx="143.45309"
       cy="946.85608"
       r="17.113276" />
    <circle
       r="17.113276"
       cy="792.83655"
       cx="92.113274"
       id="circle1048"
       style="opacity:1;fill:#000000;fill-opacity:1;stroke:none;stroke-width:0.29937989;stroke-opacity:1" />
    <g
       style="stroke-width:1.09564066"
       transform="matrix(0.29245914,0,0,0.26233047,46.059608,703.39216)"
       id="g1054">
      <rect
         style="fill:#000000;fill-opacity:1;stroke:none;stroke-width:0.74895906;stroke-opacity:1"
         id="rect1050"
         width="373.82632"
         height="10"
         x="438.81424"
         y="-337.70657"
         transform="rotate(90)" />
      <path
         style="fill:#000000;fill-opacity:1;stroke:none;stroke-width:1.09564066;stroke-opacity:1"
         id="path1052"
         d="m -252.53814,413.94578 -48.50416,-24.52405 -48.50415,-24.52405 45.49053,-29.7438 45.49052,-29.74381 3.01363,54.26786 z"
         transform="matrix(0.01408636,-0.26878387,0.26878387,0.01408636,239.93988,731.13508)" />
    </g>
    <use
       style="stroke-width:1.09564066"
       x="0"
       y="0"
       xlink:href="#g848"
       id="use1056"
       transform="translate(102.67965,364.51276)"
       width="100%"
       height="100%" />
    <use
       style="stroke-width:1.09564066"
       height="100%"
       width="100%"
       transform="matrix(0.77394577,-0.63977368,0.61915661,0.79971711,-293.7331,532.81217)"
       id="use1058"
       xlink:href="#g848"
       y="0"
       x="0" />
    <use
       style="stroke-width:1.09564066"
       x="0"
       y="0"
       xlink:href="#g848"
       id="use1060"
       transform="translate(102.67965,287.50303)"
       width="100%"
       height="100%" />
    <use
       style="stroke-width:1.09564066"
       x="0"
       y="0"
       xlink:href="#use918"
       id="use1062"
       transform="matrix(-1,0,0,1,283.84737,287.50303)"
       width="100%"
       height="100%" />
    <circle
       r="17.113276"
       cy="946.85608"
       cx="194.79292"
       id="circle1064"
       style="opacity:1;fill:#000000;fill-opacity:1;stroke:none;stroke-width:0.29937989;stroke-opacity:1" />
    <circle
       style="opacity:1;fill:#000000;fill-opacity:1;stroke:none;stroke-width:0.29937989;stroke-opacity:1"
       id="circle1066"
       cx="143.45309"
       cy="792.83655"
       r="17.113276" />
    <circle
       r="17.113276"
       cy="792.83655"
       cx="194.79292"
       id="circle1068"
       style="opacity:1;fill:#000000;fill-opacity:1;stroke:none;stroke-width:0.29937989;stroke-opacity:1" />
    <circle
       style="opacity:1;fill:#000000;fill-opacity:1;stroke:none;stroke-width:0.29937989;stroke-opacity:1"
       id="circle1070"
       cx="194.79292"
       cy="869.84631"
       r="17.113276" />
    <g
       style="stroke-width:1.09564066"
       id="g1076"
       transform="matrix(0.29245914,0,0,0.26233047,520.09733,338.8794)">
      <rect
         transform="rotate(90)"
         y="-337.70657"
         x="732.37427"
         height="10"
         width="80.266319"
         id="rect1072"
         style="fill:#000000;fill-opacity:1;stroke:none;stroke-width:0.34704822;stroke-opacity:1" />
      <path
         transform="matrix(0.01408636,-0.26878387,0.26878387,0.01408636,239.93988,731.13508)"
         d="m -252.53814,413.94578 -48.50416,-24.52405 -48.50415,-24.52405 45.49053,-29.7438 45.49052,-29.74381 3.01363,54.26786 z"
         id="path1074"
         style="fill:#000000;fill-opacity:1;stroke:none;stroke-width:1.09564066;stroke-opacity:1" />
    </g>
    <circle
       style="opacity:1;fill:#008500;fill-opacity:1;stroke:none;stroke-width:0.29937989;stroke-opacity:1"
       id="circle1078"
       cx="617.49084"
       cy="582.34326"
       r="17.113276" />
    <circle
       style="opacity:1;fill:#008500;fill-opacity:1;stroke:none;stroke-width:0.29937989;stroke-opacity:1"
       id="circle1080"
       cx="668.83063"
       cy="659.35303"
       r="17.113276" />
    <circle
       r="17.113276"
       cy="505.33356"
       cx="617.49084"
       id="circle1082"
       style="opacity:1;fill:#000000;fill-opacity:1;stroke:none;stroke-width:0.29937989;stroke-opacity:1" />
    <g
       style="stroke-width:1.09564066"
       transform="matrix(0.29245914,0,0,0.26233047,571.43716,415.88914)"
       id="g1088">
      <rect
         style="fill:#000000;fill-opacity:1;stroke:none;stroke-width:0.74895906;stroke-opacity:1"
         id="rect1084"
         width="373.82632"
         height="10"
         x="438.81424"
         y="-337.70657"
         transform="rotate(90)" />
      <path
         style="fill:#000000;fill-opacity:1;stroke:none;stroke-width:1.09564066;stroke-opacity:1"
         id="path1086"
         d="m -252.53814,413.94578 -48.50416,-24.52405 -48.50415,-24.52405 45.49053,-29.7438 45.49052,-29.74381 3.01363,54.26786 z"
         transform="matrix(0.01408636,-0.26878387,0.26878387,0.01408636,239.93988,731.13508)" />
    </g>
    <use
       style="stroke-width:1.09564066"
       x="0"
       y="0"
       xlink:href="#g848"
       id="use1090"
       transform="translate(628.0572,77.009739)"
       width="100%"
       height="100%" />
    <use
       style="stroke-width:1.09564066"
       height="100%"
       width="100%"
       transform="matrix(0.77394577,-0.63977368,0.61915661,0.79971711,231.64445,245.30914)"
       id="use1092"
       xlink:href="#g848"
       y="0"
       x="0" />
    <use
       style="stroke-width:1.09564066"
       x="0"
       y="0"
       xlink:href="#g848"
       id="use1094"
       transform="translate(628.0572)"
       width="100%"
       height="100%" />
    <use
       style="stroke-width:1.09564066"
       x="0"
       y="0"
       xlink:href="#use918"
       id="use1096"
       transform="matrix(-1,0,0,1,809.22492,0)"
       width="100%"
       height="100%" />
    <circle
       r="17.113276"
       cy="659.35303"
       cx="720.17047"
       id="circle1098"
       style="opacity:1;fill:#008500;fill-opacity:1;stroke:none;stroke-width:0.29937989;stroke-opacity:1" />
    <circle
       style="opacity:1;fill:#008500;fill-opacity:1;stroke:none;stroke-width:0.29937989;stroke-opacity:1"
       id="circle1100"
       cx="668.83063"
       cy="505.33356"
       r="17.113276" />
    <circle
       r="17.113276"
       cy="505.33356"
       cx="720.17047"
       id="circle1102"
       style="opacity:1;fill:#000000;fill-opacity:1;stroke:none;stroke-width:0.29937989;stroke-opacity:1" />
    <circle
       style="opacity:1;fill:#008500;fill-opacity:1;stroke:none;stroke-width:0.29937989;stroke-opacity:1"
       id="circle1104"
       cx="720.17047"
       cy="582.34326"
       r="17.113276" />
    <g
       style="stroke-width:1.09564066"
       transform="matrix(0.29245914,0,0,0.26233047,768.23983,338.8794)"
       id="g1110">
      <rect
         style="fill:#000000;fill-opacity:1;stroke:none;stroke-width:0.34704822;stroke-opacity:1"
         id="rect1106"
         width="80.266319"
         height="10"
         x="732.37427"
         y="-337.70657"
         transform="rotate(90)" />
      <path
         style="fill:#000000;fill-opacity:1;stroke:none;stroke-width:1.09564066;stroke-opacity:1"
         id="path1108"
         d="m -252.53814,413.94578 -48.50416,-24.52405 -48.50415,-24.52405 45.49053,-29.7438 45.49052,-29.74381 3.01363,54.26786 z"
         transform="matrix(0.01408636,-0.26878387,0.26878387,0.01408636,239.93988,731.13508)" />
    </g>
    <circle
       r="17.113276"
       cy="582.34326"
       cx="865.6333"
       id="circle1112"
       style="opacity:1;fill:#008500;fill-opacity:1;stroke:none;stroke-width:0.29937989;stroke-opacity:1" />
    <circle
       r="17.113276"
       cy="659.35303"
       cx="916.97314"
       id="circle1114"
       style="opacity:1;fill:#008500;fill-opacity:1;stroke:none;stroke-width:0.29937989;stroke-opacity:1" />
    <circle
       style="opacity:1;fill:#008500;fill-opacity:1;stroke:none;stroke-width:0.29937989;stroke-opacity:1"
       id="circle1116"
       cx="865.6333"
       cy="505.33356"
       r="17.113276" />
    <g
       style="stroke-width:1.09564066"
       id="g1122"
       transform="matrix(0.29245914,0,0,0.26233047,819.57965,415.88914)">
      <rect
         transform="rotate(90)"
         y="-337.70657"
         x="438.81424"
         height="10"
         width="373.82632"
         id="rect1118"
         style="fill:#000000;fill-opacity:1;stroke:none;stroke-width:0.74895906;stroke-opacity:1" />
      <path
         transform="matrix(0.01408636,-0.26878387,0.26878387,0.01408636,239.93988,731.13508)"
         d="m -252.53814,413.94578 -48.50416,-24.52405 -48.50415,-24.52405 45.49053,-29.7438 45.49052,-29.74381 3.01363,54.26786 z"
         id="path1120"
         style="fill:#000000;fill-opacity:1;stroke:none;stroke-width:1.09564066;stroke-opacity:1" />
    </g>
    <use
       style="stroke-width:1.09564066"
       height="100%"
       width="100%"
       transform="translate(876.1997,77.009739)"
       id="use1124"
       xlink:href="#g848"
       y="0"
       x="0" />
    <use
       style="stroke-width:1.09564066"
       x="0"
       y="0"
       xlink:href="#g848"
       id="use1126"
       transform="matrix(0.77394577,-0.63977368,0.61915661,0.79971711,479.78694,245.30914)"
       width="100%"
       height="100%" />
    <use
       style="stroke-width:1.09564066"
       height="100%"
       width="100%"
       transform="translate(876.1997)"
       id="use1128"
       xlink:href="#g848"
       y="0"
       x="0" />
    <use
       style="stroke-width:1.09564066"
       height="100%"
       width="100%"
       transform="matrix(-1,0,0,1,1057.3674,0)"
       id="use1130"
       xlink:href="#use918"
       y="0"
       x="0" />
    <circle
       style="opacity:1;fill:#008500;fill-opacity:1;stroke:none;stroke-width:0.29937989;stroke-opacity:1"
       id="circle1132"
       cx="968.31299"
       cy="659.35303"
       r="17.113276" />
    <circle
       r="17.113276"
       cy="505.33356"
       cx="916.97314"
       id="circle1134"
       style="opacity:1;fill:#008500;fill-opacity:1;stroke:none;stroke-width:0.29937989;stroke-opacity:1" />
    <circle
       style="opacity:1;fill:#008500;fill-opacity:1;stroke:none;stroke-width:0.29937989;stroke-opacity:1"
       id="circle1136"
       cx="968.31299"
       cy="505.33356"
       r="17.113276" />
    <circle
       r="17.113276"
       cy="582.34326"
       cx="968.31299"
       id="circle1138"
       style="opacity:1;fill:#008500;fill-opacity:1;stroke:none;stroke-width:0.29937989;stroke-opacity:1" />
    <g
       style="stroke-width:1.09564066"
       id="g1144"
       transform="matrix(0.29245914,0,0,0.26233047,768.23983,626.38242)">
      <rect
         transform="rotate(90)"
         y="-337.70657"
         x="732.37427"
         height="10"
         width="80.266319"
         id="rect1140"
         style="fill:#000000;fill-opacity:1;stroke:none;stroke-width:0.34704822;stroke-opacity:1" />
      <path
         transform="matrix(0.01408636,-0.26878387,0.26878387,0.01408636,239.93988,731.13508)"
         d="m -252.53814,413.94578 -48.50416,-24.52405 -48.50415,-24.52405 45.49053,-29.7438 45.49052,-29.74381 3.01363,54.26786 z"
         id="path1142"
         style="fill:#000000;fill-opacity:1;stroke:none;stroke-width:1.09564066;stroke-opacity:1" />
    </g>
    <circle
       style="opacity:1;fill:#920000;fill-opacity:1;stroke:none;stroke-width:0.29937989;stroke-opacity:1"
       id="circle1146"
       cx="865.6333"
       cy="869.84631"
       r="17.113276" />
    <circle
       style="opacity:1;fill:#920000;fill-opacity:1;stroke:none;stroke-width:0.29937989;stroke-opacity:1"
       id="circle1148"
       cx="916.97314"
       cy="946.85608"
       r="17.113276" />
    <circle
       r="17.113276"
       cy="792.83655"
       cx="865.6333"
       id="circle1150"
       style="opacity:1;fill:#920000;fill-opacity:1;stroke:none;stroke-width:0.29937989;stroke-opacity:1" />
    <g
       style="stroke-width:1.09564066"
       transform="matrix(0.29245914,0,0,0.26233047,819.57965,703.39216)"
       id="g1156">
      <rect
         style="fill:#000000;fill-opacity:1;stroke:none;stroke-width:0.74895906;stroke-opacity:1"
         id="rect1152"
         width="373.82632"
         height="10"
         x="438.81424"
         y="-337.70657"
         transform="rotate(90)" />
      <path
         style="fill:#000000;fill-opacity:1;stroke:none;stroke-width:1.09564066;stroke-opacity:1"
         id="path1154"
         d="m -252.53814,413.94578 -48.50416,-24.52405 -48.50415,-24.52405 45.49053,-29.7438 45.49052,-29.74381 3.01363,54.26786 z"
         transform="matrix(0.01408636,-0.26878387,0.26878387,0.01408636,239.93988,731.13508)" />
    </g>
    <use
       style="stroke-width:1.09564066"
       x="0"
       y="0"
       xlink:href="#g848"
       id="use1158"
       transform="translate(876.1997,364.51276)"
       width="100%"
       height="100%" />
    <use
       style="stroke-width:1.09564066"
       height="100%"
       width="100%"
       transform="matrix(0.77394577,-0.63977368,0.61915661,0.79971711,479.78694,532.81217)"
       id="use1160"
       xlink:href="#g848"
       y="0"
       x="0" />
    <use
       style="stroke-width:1.09564066"
       x="0"
       y="0"
       xlink:href="#g848"
       id="use1162"
       transform="translate(876.1997,287.50303)"
       width="100%"
       height="100%" />
    <use
       style="stroke-width:1.09564066"
       x="0"
       y="0"
       xlink:href="#use918"
       id="use1164"
       transform="matrix(-1,0,0,1,1057.3674,287.50303)"
       width="100%"
       height="100%" />
    <circle
       r="17.113276"
       cy="946.85608"
       cx="968.31299"
       id="circle1166"
       style="opacity:1;fill:#920000;fill-opacity:1;stroke:none;stroke-width:0.29937989;stroke-opacity:1" />
    <circle
       style="opacity:1;fill:#920000;fill-opacity:1;stroke:none;stroke-width:0.29937989;stroke-opacity:1"
       id="circle1168"
       cx="916.97314"
       cy="792.83655"
       r="17.113276" />
    <circle
       r="17.113276"
       cy="792.83655"
       cx="968.31299"
       id="circle1170"
       style="opacity:1;fill:#920000;fill-opacity:1;stroke:none;stroke-width:0.29937989;stroke-opacity:1" />
    <circle
       style="opacity:1;fill:#920000;fill-opacity:1;stroke:none;stroke-width:0.29937989;stroke-opacity:1"
       id="circle1172"
       cx="968.31299"
       cy="869.84631"
       r="17.113276" />
    <g
       style="stroke-width:1.09564066"
       transform="matrix(0.29245914,0,0,0.26233047,520.09733,626.38242)"
       id="g1178">
      <rect
         style="fill:#000000;fill-opacity:1;stroke:none;stroke-width:0.34704822;stroke-opacity:1"
         id="rect1174"
         width="80.266319"
         height="10"
         x="732.37427"
         y="-337.70657"
         transform="rotate(90)" />
      <path
         style="fill:#000000;fill-opacity:1;stroke:none;stroke-width:1.09564066;stroke-opacity:1"
         id="path1176"
         d="m -252.53814,413.94578 -48.50416,-24.52405 -48.50415,-24.52405 45.49053,-29.7438 45.49052,-29.74381 3.01363,54.26786 z"
         transform="matrix(0.01408636,-0.26878387,0.26878387,0.01408636,239.93988,731.13508)" />
    </g>
    <circle
       r="17.113276"
       cy="869.84631"
       cx="617.49084"
       id="circle1180"
       style="opacity:1;fill:#920000;fill-opacity:1;stroke:none;stroke-width:0.29937989;stroke-opacity:1" />
    <circle
       r="17.113276"
       cy="946.85608"
       cx="668.83063"
       id="circle1182"
       style="opacity:1;fill:#000000;fill-opacity:1;stroke:none;stroke-width:0.29937989;stroke-opacity:1" />
    <circle
       style="opacity:1;fill:#920000;fill-opacity:1;stroke:none;stroke-width:0.29937989;stroke-opacity:1"
       id="circle1184"
       cx="617.49084"
       cy="792.83655"
       r="17.113276" />
    <g
       style="stroke-width:1.09564066"
       id="g1190"
       transform="matrix(0.29245914,0,0,0.26233047,571.43716,703.39216)">
      <rect
         transform="rotate(90)"
         y="-337.70657"
         x="438.81424"
         height="10"
         width="373.82632"
         id="rect1186"
         style="fill:#000000;fill-opacity:1;stroke:none;stroke-width:0.74895906;stroke-opacity:1" />
      <path
         transform="matrix(0.01408636,-0.26878387,0.26878387,0.01408636,239.93988,731.13508)"
         d="m -252.53814,413.94578 -48.50416,-24.52405 -48.50415,-24.52405 45.49053,-29.7438 45.49052,-29.74381 3.01363,54.26786 z"
         id="path1188"
         style="fill:#000000;fill-opacity:1;stroke:none;stroke-width:1.09564066;stroke-opacity:1" />
    </g>
    <use
       style="stroke-width:1.09564066"
       height="100%"
       width="100%"
       transform="translate(628.0572,364.51276)"
       id="use1192"
       xlink:href="#g848"
       y="0"
       x="0" />
    <use
       style="stroke-width:1.09564066"
       x="0"
       y="0"
       xlink:href="#g848"
       id="use1194"
       transform="matrix(0.77394577,-0.63977368,0.61915661,0.79971711,231.64445,532.81217)"
       width="100%"
       height="100%" />
    <use
       style="stroke-width:1.09564066"
       height="100%"
       width="100%"
       transform="translate(628.0572,287.50303)"
       id="use1196"
       xlink:href="#g848"
       y="0"
       x="0" />
    <use
       style="stroke-width:1.09564066"
       height="100%"
       width="100%"
       transform="matrix(-1,0,0,1,809.22492,287.50303)"
       id="use1198"
       xlink:href="#use918"
       y="0"
       x="0" />
    <circle
       style="opacity:1;fill:#000000;fill-opacity:1;stroke:none;stroke-width:0.29937989;stroke-opacity:1"
       id="circle1200"
       cx="720.17047"
       cy="946.85608"
       r="17.113276" />
    <circle
       r="17.113276"
       cy="792.83655"
       cx="668.83063"
       id="circle1202"
       style="opacity:1;fill:#920000;fill-opacity:1;stroke:none;stroke-width:0.29937989;stroke-opacity:1" />
    <circle
       style="opacity:1;fill:#920000;fill-opacity:1;stroke:none;stroke-width:0.29937989;stroke-opacity:1"
       id="circle1204"
       cx="720.17047"
       cy="792.83655"
       r="17.113276" />
    <circle
       r="17.113276"
       cy="869.84631"
       cx="720.17047"
       id="circle1206"
       style="opacity:1;fill:#920000;fill-opacity:1;stroke:none;stroke-width:0.29937989;stroke-opacity:1" />
  </g>
</svg>
